<?xml version="1.0" encoding="UTF-8"?>
<svg width="266px" height="266px" viewBox="0 0 266 266" version="1.1" xmlns="http://www.w3.org/2000/svg" xmlns:xlink="http://www.w3.org/1999/xlink">
    <!-- Generator: Sketch 52.1 (67048) - http://www.bohemiancoding.com/sketch -->
    <title>Group</title>
    <desc>Created with Sketch.</desc>
    <defs>
        <circle id="path-1" cx="126" cy="126" r="103"></circle>
        <filter x="-3.2%" y="-2.7%" width="106.3%" height="106.3%" filterUnits="objectBoundingBox" id="filter-2">
            <feOffset dx="0" dy="1" in="SourceAlpha" result="shadowOffsetOuter1"></feOffset>
            <feGaussianBlur stdDeviation="2" in="shadowOffsetOuter1" result="shadowBlurOuter1"></feGaussianBlur>
            <feColorMatrix values="0 0 0 0 0.781940901   0 0 0 0 0.734249726   0 0 0 0 0.654764434  0 0 0 1 0" type="matrix" in="shadowBlurOuter1"></feColorMatrix>
        </filter>
    </defs>
    <g id="Page-1" stroke="none" stroke-width="1" fill="none" fill-rule="evenodd">
        <g id="iPhone-XS-Max-Copy-5" transform="translate(-73.000000, -246.000000)">
            <g id="Group" transform="translate(80.000000, 253.000000)">
                <path d="M126,252 C195.587878,252 252,195.587878 252,126 C252,56.4121215 195.587878,0 126,0 C56.4121215,0 0,56.4121215 0,126 C0,195.587878 56.4121215,252 126,252 Z" id="Oval-Copy-12" stroke="#E30027" stroke-width="14" stroke-dasharray="1,7"></path>
                <g id="Oval">
                    <use fill="black" fill-opacity="1" filter="url(#filter-2)" xlink:href="#path-1"></use>
                    <use fill="#FFFCF7" fill-rule="evenodd" xlink:href="#path-1"></use>
                </g>
                <g id="alarma-copy-3" transform="translate(66.000000, 59.000000)">
                    <g id="Group-10" transform="translate(15.180723, 36.867470)">
                        <g id="Group-8">
                            <g id="Group-7" transform="translate(7.951807, 0.000000)">
                                <path d="M21.8123381,8.8817842e-14 L51.9226016,9.13860687e-14 C59.0634145,9.00743227e-14 65.1346799,5.21331507 66.2142511,12.2720496 L73.7349398,61.4457831 L0,61.4457831 L7.52068865,12.2720496 C8.60025983,5.21331507 14.6715253,9.26978148e-14 21.8123381,8.8817842e-14 Z" id="Rectangle" fill="#E30027" transform="translate(36.867470, 30.722892) scale(-1, 1) translate(-36.867470, -30.722892) "></path>
                                <path d="M61.3754809,3.53625226 C63.5113686,5.38184146 65.1093571,7.85071243 65.8774377,10.6921209 L73.7349398,61.4636725 L-5.68434189e-14,61.4636725 L61.3754809,3.53625226 Z" id="Combined-Shape" fill="#CC012C"></path>
                            </g>
                            <path d="M8.6746988,61.4457831 L80.9638554,61.4457831 C85.7547593,61.4457831 89.6385542,65.3295781 89.6385542,70.1204819 L89.6385542,80.9638554 L0,80.9638554 L0,70.1204819 C-5.86716507e-16,65.3295781 3.88379494,61.4457831 8.6746988,61.4457831 Z" id="Rectangle" fill="#3A413D"></path>
                            <path d="M8.6746988,59.2771084 L80.9638554,59.2771084 C82.5608234,59.2771084 83.8554217,60.5717067 83.8554217,62.1686747 L5.78313253,62.1686747 C5.78313253,60.5717067 7.07773084,59.2771084 8.6746988,59.2771084 Z" id="Rectangle-Copy-15" fill="#5E6662"></path>
                        </g>
                        <path d="M23.6271401,18.0722892 C22.5560431,18.0722892 21.686747,17.202993 21.686747,16.131896 C21.686747,10.424553 26.3281674,5.78313253 32.0355105,5.78313253 C33.1066075,5.78313253 33.9759036,6.65242867 33.9759036,7.72352566 C33.9759036,8.79462267 33.1066075,9.66391887 32.0355105,9.66391887 C28.4677743,9.66391887 25.5675333,12.566747 25.5675333,16.131896 C25.5675333,17.202993 24.6982371,18.0722892 23.6271401,18.0722892 Z" id="Path" fill="#FF2755"></path>
                    </g>
                    <g id="Group-9" fill="#CC012C">
                        <path d="M59.6385542,15.1807229 C58.2419277,15.1807229 57.1084337,14.1605783 57.1084337,12.9036145 L57.1084337,2.27710843 C57.1084337,1.02014458 58.2419277,0 59.6385542,0 C61.0351807,0 62.1686747,1.02014458 62.1686747,2.27710843 L62.1686747,12.9036145 C62.1686747,14.1605783 61.0351807,15.1807229 59.6385542,15.1807229 Z" id="Path"></path>
                        <path d="M112.409639,57.8313253 C111.013012,57.8313253 109.879518,56.8111807 109.879518,55.5542169 L109.879518,44.9277108 C109.879518,43.670747 111.013012,42.6506024 112.409639,42.6506024 C113.806265,42.6506024 114.939759,43.670747 114.939759,44.9277108 L114.939759,55.5542169 C114.939759,56.8111807 113.806265,57.8313253 112.409639,57.8313253 Z" id="Path" transform="translate(112.409639, 50.240964) rotate(90.000000) translate(-112.409639, -50.240964) "></path>
                        <path d="M7.59036145,57.8313253 C6.19373494,57.8313253 5.06024096,56.8111807 5.06024096,55.5542169 L5.06024096,44.9277108 C5.06024096,43.670747 6.19373494,42.6506024 7.59036145,42.6506024 C8.98698795,42.6506024 10.1204819,43.670747 10.1204819,44.9277108 L10.1204819,55.5542169 C10.1204819,56.8111807 8.98698795,57.8313253 7.59036145,57.8313253 Z" id="Path-Copy" transform="translate(7.590361, 50.240964) rotate(90.000000) translate(-7.590361, -50.240964) "></path>
                        <path d="M92.6790904,24.5783133 C92.0855754,24.5783133 91.4920605,24.3526681 91.0407419,23.898287 C90.1350137,22.9926156 90.1350137,21.5243771 91.0407419,20.6187057 L98.691519,12.9684101 C99.5972472,12.0627388 101.065578,12.0627388 101.971306,12.9684101 C102.877034,13.8740815 102.877034,15.34232 101.971306,16.2479914 L94.3174381,23.898287 C93.8661195,24.3526681 93.2726053,24.5783133 92.6790904,24.5783133 Z" id="Path"></path>
                        <path d="M26.5974351,24.5783133 C26.0037711,24.5783133 25.4101069,24.3526681 24.9586748,23.898287 L17.3059732,16.2479914 C16.4000169,15.34232 16.4000169,13.8740815 17.3059732,12.9684101 C18.2119294,12.0627388 19.6806297,12.0627388 20.5865859,12.9684101 L28.2361955,20.6217967 C29.1421517,21.5274681 29.1421517,22.9957066 28.2361955,23.901378 C27.7847634,24.3526681 27.1910993,24.5783133 26.5974351,24.5783133 Z" id="Path"></path>
                    </g>
                </g>
            </g>
        </g>
    </g>
</svg>