<?xml version="1.0" encoding="UTF-8"?>
<svg width="90px" height="82px" viewBox="0 0 90 82" version="1.1" xmlns="http://www.w3.org/2000/svg" xmlns:xlink="http://www.w3.org/1999/xlink">
    <!-- Generator: Sketch 52.1 (67048) - http://www.bohemiancoding.com/sketch -->
    <title>alarma</title>
    <desc>Created with Sketch.</desc>
    <g id="Page-1" stroke="none" stroke-width="1" fill="none" fill-rule="evenodd">
        <g id="iPhone-XS-Max-Copy-20" transform="translate(-161.000000, -250.000000)">
            <g id="alarma" transform="translate(161.000000, 250.000000)">
                <g id="Group-10" transform="translate(0.180723, 0.867470)">
                    <g id="Group-8">
                        <g id="Group-7" transform="translate(7.951807, 0.000000)">
                            <path d="M21.8123381,8.8817842e-14 L51.9226016,9.13860687e-14 C59.0634145,9.00743227e-14 65.1346799,5.21331507 66.2142511,12.2720496 L73.7349398,61.4457831 L0,61.4457831 L7.52068865,12.2720496 C8.60025983,5.21331507 14.6715253,9.26978148e-14 21.8123381,8.8817842e-14 Z" id="Rectangle" fill="#8B293D" transform="translate(36.867470, 30.722892) scale(-1, 1) translate(-36.867470, -30.722892) "></path>
                            <path d="M61.3754809,3.53625226 C63.5113686,5.38184146 65.1093571,7.85071243 65.8774377,10.6921209 L73.7349398,61.4636725 L-5.68434189e-14,61.4636725 L61.3754809,3.53625226 Z" id="Combined-Shape" fill="#6E182A"></path>
                        </g>
                        <path d="M8.6746988,61.4457831 L80.9638554,61.4457831 C85.7547593,61.4457831 89.6385542,65.3295781 89.6385542,70.1204819 L89.6385542,80.9638554 L0,80.9638554 L0,70.1204819 C-5.86716507e-16,65.3295781 3.88379494,61.4457831 8.6746988,61.4457831 Z" id="Rectangle" fill="#3A413D"></path>
                        <path d="M8.6746988,59.2771084 L80.9638554,59.2771084 C82.5608234,59.2771084 83.8554217,60.5717067 83.8554217,62.1686747 L5.78313253,62.1686747 C5.78313253,60.5717067 7.07773084,59.2771084 8.6746988,59.2771084 Z" id="Rectangle-Copy-15" fill="#5E6662"></path>
                    </g>
                    <path d="M23.6271401,18.0722892 C22.5560431,18.0722892 21.686747,17.202993 21.686747,16.131896 C21.686747,10.424553 26.3281674,5.78313253 32.0355105,5.78313253 C33.1066075,5.78313253 33.9759036,6.65242867 33.9759036,7.72352566 C33.9759036,8.79462267 33.1066075,9.66391887 32.0355105,9.66391887 C28.4677743,9.66391887 25.5675333,12.566747 25.5675333,16.131896 C25.5675333,17.202993 24.6982371,18.0722892 23.6271401,18.0722892 Z" id="Path" fill="#E0CCD0"></path>
                </g>
            </g>
        </g>
    </g>
</svg>