<?xml version="1.0" encoding="UTF-8"?>
<svg width="120px" height="186px" viewBox="0 0 120 186" version="1.1" xmlns="http://www.w3.org/2000/svg" xmlns:xlink="http://www.w3.org/1999/xlink">
    <!-- Generator: Sketch 52.1 (67048) - http://www.bohemiancoding.com/sketch -->
    <title>Group 4</title>
    <desc>Created with Sketch.</desc>
    <g id="Page-1" stroke="none" stroke-width="1" fill="none" fill-rule="evenodd">
        <g id="iPhone-XS-Max" transform="translate(-146.000000, -125.000000)">
            <g id="Group-4" transform="translate(146.000000, 125.000000)">
                <path d="M8.2,153.36 L8.2,144.33 L4,132 L7.24,132 L9.7,140.49 L9.76,140.49 L12.22,132 L15.46,132 L11.26,144.33 L11.26,153.36 L8.2,153.36 Z M22.02,145.89 L20.52,138.15 L20.46,138.15 L18.96,145.89 L22.02,145.89 Z M14.46,153.36 L19.23,132 L21.78,132 L26.55,153.36 L23.49,153.36 L22.59,148.77 L18.42,148.77 L17.52,153.36 L14.46,153.36 Z M28.43,153.36 L28.43,132 L31.37,132 L35.99,144.87 L36.05,144.87 L36.05,132 L39.11,132 L39.11,153.36 L36.23,153.36 L31.55,140.52 L31.49,140.52 L31.49,153.36 L28.43,153.36 Z M48.55,145.89 L47.05,138.15 L46.99,138.15 L45.49,145.89 L48.55,145.89 Z M40.99,153.36 L45.76,132 L48.31,132 L53.08,153.36 L50.02,153.36 L49.12,148.77 L44.95,148.77 L44.05,153.36 L40.99,153.36 Z M55.08,153.36 L55.08,132 L59.67,132 C60.5100042,132 61.2499968,132.109999 61.89,132.33 C62.5300032,132.550001 63.1099974,132.939997 63.63,133.5 C64.1500026,134.060003 64.509999,134.714996 64.71,135.465 C64.910001,136.215004 65.01,137.229994 65.01,138.51 C65.01,139.470005 64.9550006,140.279997 64.845,140.94 C64.7349995,141.600003 64.5000018,142.219997 64.14,142.8 C63.7199979,143.500003 63.1600035,144.044998 62.46,144.435 C61.7599965,144.825002 60.8400057,145.02 59.7,145.02 L58.14,145.02 L58.14,153.36 L55.08,153.36 Z M58.14,134.88 L58.14,142.14 L59.61,142.14 C60.2300031,142.14 60.7099983,142.050001 61.05,141.87 C61.3900017,141.689999 61.6399992,141.440002 61.8,141.12 C61.9600008,140.819998 62.0549999,140.450002 62.085,140.01 C62.1150002,139.569998 62.13,139.080003 62.13,138.54 C62.13,138.039997 62.1200001,137.565002 62.1,137.115 C62.0799999,136.664998 61.9900008,136.270002 61.83,135.93 C61.6699992,135.589998 61.4300016,135.330001 61.11,135.15 C60.7899984,134.969999 60.330003,134.88 59.73,134.88 L58.14,134.88 Z M72.86,145.89 L71.36,138.15 L71.3,138.15 L69.8,145.89 L72.86,145.89 Z M65.3,153.36 L70.07,132 L72.62,132 L77.39,153.36 L74.33,153.36 L73.43,148.77 L69.26,148.77 L68.36,153.36 L65.3,153.36 Z M79.39,153.36 L79.39,132 L82.45,132 L82.45,141.75 L82.51,141.75 L86.98,132 L90.04,132 L85.87,140.55 L90.82,153.36 L87.58,153.36 L84.1,143.88 L82.45,146.97 L82.45,153.36 L79.39,153.36 Z M102.57,132 L102.57,148.56 C102.57,149.260004 102.445001,149.904997 102.195,150.495 C101.944999,151.085003 101.590002,151.609998 101.13,152.07 C100.669998,152.530002 100.140003,152.889999 99.54,153.15 C98.939997,153.410001 98.3000034,153.54 97.62,153.54 C96.9399966,153.54 96.305003,153.410001 95.715,153.15 C95.1249971,152.889999 94.6000023,152.530002 94.14,152.07 C93.6799977,151.609998 93.3200013,151.085003 93.06,150.495 C92.7999987,149.904997 92.67,149.260004 92.67,148.56 L92.67,132 L95.73,132 L95.73,148.26 C95.73,149.020004 95.9099982,149.579998 96.27,149.94 C96.6300018,150.300002 97.0799973,150.48 97.62,150.48 C98.1600027,150.48 98.6099982,150.300002 98.97,149.94 C99.3300018,149.579998 99.51,149.020004 99.51,148.26 L99.51,132 L102.57,132 Z M105.83,153.36 L105.83,132 L108.77,132 L113.39,144.87 L113.45,144.87 L113.45,132 L116.51,132 L116.51,153.36 L113.63,153.36 L108.95,140.52 L108.89,140.52 L108.89,153.36 L105.83,153.36 Z" id="YANAPAKUN" fill="#E30027"></path>
                <path d="M23,185.54 L23,164.18 L27.59,164.18 C28.4300042,164.18 29.1699968,164.289999 29.81,164.51 C30.4500032,164.730001 31.0299974,165.119997 31.55,165.68 C32.0700026,166.240003 32.429999,166.894996 32.63,167.645 C32.830001,168.395004 32.93,169.409994 32.93,170.69 C32.93,171.650005 32.8750005,172.459997 32.765,173.12 C32.6549994,173.780003 32.4200018,174.399997 32.06,174.98 C31.6399979,175.680004 31.0800035,176.224998 30.38,176.615 C29.6799965,177.005002 28.7600057,177.2 27.62,177.2 L26.06,177.2 L26.06,185.54 L23,185.54 Z M26.06,167.06 L26.06,174.32 L27.53,174.32 C28.1500031,174.32 28.6299983,174.230001 28.97,174.05 C29.3100017,173.869999 29.5599992,173.620002 29.72,173.3 C29.8800008,172.999999 29.9749999,172.630002 30.005,172.19 C30.0350002,171.749998 30.05,171.260003 30.05,170.72 C30.05,170.219998 30.0400001,169.745002 30.02,169.295 C29.9999999,168.844998 29.9100008,168.450002 29.75,168.11 C29.5899992,167.769998 29.3500016,167.510001 29.03,167.33 C28.7099984,167.149999 28.250003,167.06 27.65,167.06 L26.06,167.06 Z M35.53,169.22 C35.53,168.359996 35.6799985,167.600003 35.98,166.94 C36.2800015,166.279997 36.6799975,165.730002 37.18,165.29 C37.6600024,164.869998 38.204997,164.550001 38.815,164.33 C39.425003,164.109999 40.0399969,164 40.66,164 C41.2800031,164 41.894997,164.109999 42.505,164.33 C43.115003,164.550001 43.6699975,164.869998 44.17,165.29 C44.6500024,165.730002 45.0399985,166.279997 45.34,166.94 C45.6400015,167.600003 45.79,168.359996 45.79,169.22 L45.79,180.5 C45.79,181.400005 45.6400015,182.169997 45.34,182.81 C45.0399985,183.450003 44.6500024,183.979998 44.17,184.4 C43.6699975,184.840002 43.115003,185.169999 42.505,185.39 C41.894997,185.610001 41.2800031,185.72 40.66,185.72 C40.0399969,185.72 39.425003,185.610001 38.815,185.39 C38.204997,185.169999 37.6600024,184.840002 37.18,184.4 C36.6799975,183.979998 36.2800015,183.450003 35.98,182.81 C35.6799985,182.169997 35.53,181.400005 35.53,180.5 L35.53,169.22 Z M38.59,180.5 C38.59,181.240004 38.7949979,181.784998 39.205,182.135 C39.615002,182.485002 40.0999972,182.66 40.66,182.66 C41.2200028,182.66 41.704998,182.485002 42.115,182.135 C42.5250021,181.784998 42.73,181.240004 42.73,180.5 L42.73,169.22 C42.73,168.479996 42.5250021,167.935002 42.115,167.585 C41.704998,167.234998 41.2200028,167.06 40.66,167.06 C40.0999972,167.06 39.615002,167.234998 39.205,167.585 C38.7949979,167.935002 38.59,168.479996 38.59,169.22 L38.59,180.5 Z M48.99,185.54 L48.99,164.18 L52.05,164.18 L52.05,182.48 L58.11,182.48 L58.11,185.54 L48.99,185.54 Z M60.68,185.54 L60.68,164.18 L63.74,164.18 L63.74,185.54 L60.68,185.54 Z M76.93,179.45 L76.93,180.77 C76.93,181.430003 76.8050012,182.054997 76.555,182.645 C76.3049988,183.235003 75.9600022,183.759998 75.52,184.22 C75.0799978,184.680002 74.565003,185.044999 73.975,185.315 C73.384997,185.585001 72.7500034,185.72 72.07,185.72 C71.4899971,185.72 70.900003,185.640001 70.3,185.48 C69.699997,185.319999 69.1600024,185.040002 68.68,184.64 C68.1999976,184.239998 67.8050015,183.725003 67.495,183.095 C67.1849985,182.464997 67.03,181.660005 67.03,180.68 L67.03,168.92 C67.03,168.219997 67.1499988,167.570003 67.39,166.97 C67.6300012,166.369997 67.9699978,165.850002 68.41,165.41 C68.8500022,164.969998 69.374997,164.625001 69.985,164.375 C70.5950031,164.124999 71.2699963,164 72.01,164 C73.4500072,164 74.6199955,164.469995 75.52,165.41 C75.9600022,165.870002 76.3049988,166.414997 76.555,167.045 C76.8050012,167.675003 76.93,168.359996 76.93,169.1 L76.93,170.3 L73.87,170.3 L73.87,169.28 C73.87,168.679997 73.7000017,168.160002 73.36,167.72 C73.0199983,167.279998 72.5600029,167.06 71.98,167.06 C71.2199962,167.06 70.7150013,167.294998 70.465,167.765 C70.2149988,168.235002 70.09,168.829996 70.09,169.55 L70.09,180.47 C70.09,181.090003 70.2249987,181.609998 70.495,182.03 C70.7650013,182.450002 71.2499965,182.66 71.95,182.66 C72.150001,182.66 72.3649989,182.625 72.595,182.555 C72.8250011,182.485 73.039999,182.370001 73.24,182.21 C73.4200009,182.049999 73.5699994,181.830001 73.69,181.55 C73.8100006,181.269999 73.87,180.920002 73.87,180.5 L73.87,179.45 L76.93,179.45 Z M80.01,185.54 L80.01,164.18 L83.07,164.18 L83.07,185.54 L80.01,185.54 Z M92.72,178.07 L91.22,170.33 L91.16,170.33 L89.66,178.07 L92.72,178.07 Z M85.16,185.54 L89.93,164.18 L92.48,164.18 L97.25,185.54 L94.19,185.54 L93.29,180.95 L89.12,180.95 L88.22,185.54 L85.16,185.54 Z" id="POLICIA" fill="#3A413D"></path>
                <g id="alarma" transform="translate(0.000000, 0.000000)">
                    <g id="Group-10" transform="translate(15.180723, 36.867470)">
                        <g id="Group-8">
                            <g id="Group-7" transform="translate(7.951807, 0.000000)">
                                <path d="M21.8123381,8.8817842e-14 L51.9226016,9.13860687e-14 C59.0634145,9.00743227e-14 65.1346799,5.21331507 66.2142511,12.2720496 L73.7349398,61.4457831 L0,61.4457831 L7.52068865,12.2720496 C8.60025983,5.21331507 14.6715253,9.26978148e-14 21.8123381,8.8817842e-14 Z" id="Rectangle" fill="#E30027" transform="translate(36.867470, 30.722892) scale(-1, 1) translate(-36.867470, -30.722892) "></path>
                                <path d="M61.3754809,3.53625226 C63.5113686,5.38184146 65.1093571,7.85071243 65.8774377,10.6921209 L73.7349398,61.4636725 L-5.68434189e-14,61.4636725 L61.3754809,3.53625226 Z" id="Combined-Shape" fill="#CC012C"></path>
                            </g>
                            <path d="M8.6746988,61.4457831 L80.9638554,61.4457831 C85.7547593,61.4457831 89.6385542,65.3295781 89.6385542,70.1204819 L89.6385542,80.9638554 L0,80.9638554 L0,70.1204819 C-5.86716507e-16,65.3295781 3.88379494,61.4457831 8.6746988,61.4457831 Z" id="Rectangle" fill="#3A413D"></path>
                            <path d="M8.6746988,59.2771084 L80.9638554,59.2771084 C82.5608234,59.2771084 83.8554217,60.5717067 83.8554217,62.1686747 L5.78313253,62.1686747 C5.78313253,60.5717067 7.07773084,59.2771084 8.6746988,59.2771084 Z" id="Rectangle-Copy-15" fill="#5E6662"></path>
                        </g>
                        <path d="M23.6271401,18.0722892 C22.5560431,18.0722892 21.686747,17.202993 21.686747,16.131896 C21.686747,10.424553 26.3281674,5.78313253 32.0355105,5.78313253 C33.1066075,5.78313253 33.9759036,6.65242867 33.9759036,7.72352566 C33.9759036,8.79462267 33.1066075,9.66391887 32.0355105,9.66391887 C28.4677743,9.66391887 25.5675333,12.566747 25.5675333,16.131896 C25.5675333,17.202993 24.6982371,18.0722892 23.6271401,18.0722892 Z" id="Path" fill="#FF2755"></path>
                    </g>
                    <g id="Group-9" fill="#CC012C">
                        <path d="M59.6385542,15.1807229 C58.2419277,15.1807229 57.1084337,14.1605783 57.1084337,12.9036145 L57.1084337,2.27710843 C57.1084337,1.02014458 58.2419277,0 59.6385542,0 C61.0351807,0 62.1686747,1.02014458 62.1686747,2.27710843 L62.1686747,12.9036145 C62.1686747,14.1605783 61.0351807,15.1807229 59.6385542,15.1807229 Z" id="Path"></path>
                        <path d="M112.409639,57.8313253 C111.013012,57.8313253 109.879518,56.8111807 109.879518,55.5542169 L109.879518,44.9277108 C109.879518,43.670747 111.013012,42.6506024 112.409639,42.6506024 C113.806265,42.6506024 114.939759,43.670747 114.939759,44.9277108 L114.939759,55.5542169 C114.939759,56.8111807 113.806265,57.8313253 112.409639,57.8313253 Z" id="Path" transform="translate(112.409639, 50.240964) rotate(90.000000) translate(-112.409639, -50.240964) "></path>
                        <path d="M7.59036145,57.8313253 C6.19373494,57.8313253 5.06024096,56.8111807 5.06024096,55.5542169 L5.06024096,44.9277108 C5.06024096,43.670747 6.19373494,42.6506024 7.59036145,42.6506024 C8.98698795,42.6506024 10.1204819,43.670747 10.1204819,44.9277108 L10.1204819,55.5542169 C10.1204819,56.8111807 8.98698795,57.8313253 7.59036145,57.8313253 Z" id="Path-Copy" transform="translate(7.590361, 50.240964) rotate(90.000000) translate(-7.590361, -50.240964) "></path>
                        <path d="M92.6790904,24.5783133 C92.0855754,24.5783133 91.4920605,24.3526681 91.0407419,23.898287 C90.1350137,22.9926156 90.1350137,21.5243771 91.0407419,20.6187057 L98.691519,12.9684101 C99.5972472,12.0627388 101.065578,12.0627388 101.971306,12.9684101 C102.877034,13.8740815 102.877034,15.34232 101.971306,16.2479914 L94.3174381,23.898287 C93.8661195,24.3526681 93.2726053,24.5783133 92.6790904,24.5783133 Z" id="Path"></path>
                        <path d="M26.5974351,24.5783133 C26.0037711,24.5783133 25.4101069,24.3526681 24.9586748,23.898287 L17.3059732,16.2479914 C16.4000169,15.34232 16.4000169,13.8740815 17.3059732,12.9684101 C18.2119294,12.0627388 19.6806297,12.0627388 20.5865859,12.9684101 L28.2361955,20.6217967 C29.1421517,21.5274681 29.1421517,22.9957066 28.2361955,23.901378 C27.7847634,24.3526681 27.1910993,24.5783133 26.5974351,24.5783133 Z" id="Path"></path>
                    </g>
                </g>
            </g>
        </g>
    </g>
</svg>