<?xml version="1.0" encoding="UTF-8"?>
<svg width="20px" height="21px" viewBox="0 0 20 21" version="1.1" xmlns="http://www.w3.org/2000/svg" xmlns:xlink="http://www.w3.org/1999/xlink">
    <!-- Generator: Sketch 52.1 (67048) - http://www.bohemiancoding.com/sketch -->
    <title>logo copy 6</title>
    <desc>Created with Sketch.</desc>
    <g id="Page-1" stroke="none" stroke-width="1" fill="none" fill-rule="evenodd">
        <g id="iPhone-XS-Max-Copy-17" transform="translate(-176.000000, -253.000000)">
            <g id="logo-copy-6" transform="translate(176.000000, 253.000000)">
                <g id="logo-copy-3">
                    <path d="M2.73326878,9.69402611 C5.02401115,10.168532 7.36365074,10.4057849 9.75218752,10.4057849 C12.1583871,10.4057849 14.6054779,10.1650101 17.0934596,9.68346048 C18.3984422,9.43088073 19.6769805,10.2078608 19.9491549,11.418894 C19.9845382,11.5763313 20.0015478,11.7368472 19.9998895,11.8976649 L19.9553876,16.2131413 C19.9486952,16.86212 19.6719221,17.4835747 19.182936,17.9475717 C17.1473962,19.8790875 14.0774263,20.8448454 9.97302626,20.8448454 C5.877867,20.8448454 2.81248522,19.8834313 0.776880939,17.9606031 C0.278980962,17.4902877 3.81114491e-16,16.8573406 0,16.1980294 L9.78284069e-09,11.7267676 C9.78283997e-09,10.5764886 1.00482565,9.64400321 2.24434089,9.64400321 C2.40879955,9.64400321 2.57276001,9.66077823 2.73326878,9.69402611 Z" id="Rectangle" fill="#523E3E"></path>
                    <path d="M1.88234223,9.43917526 L18.1176578,9.43917526 C19.1572467,9.43917526 20,10.2428311 20,11.2341908 L20,11.7209472 C20,12.7132188 19.6171145,13.6707978 18.9243235,14.4111649 C16.8736253,16.6026907 13.8777538,17.6984536 9.93670888,17.6984536 C5.9916379,17.6984536 3.02343903,16.6004508 1.03211234,14.4044452 C0.366370082,13.6702744 1.24645946e-16,12.7321122 0,11.7615198 L0,11.2341908 C-1.27312923e-16,10.2428311 0.842753321,9.43917526 1.88234223,9.43917526 Z" id="Rectangle" fill="#816161"></path>
                    <path d="M7.77070646,1.76503941e-15 L12.129814,0 C13.9456889,-1.88437458e-15 15.5532559,1.1365195 16.1060218,2.81110378 L18.358509,9.63493224 C18.8186925,11.0290416 18.4643635,12.5550833 17.4321977,13.6244161 C15.696375,15.4227435 13.2135712,16.3219072 9.98378607,16.3219072 C6.73100064,16.3219072 4.24681585,15.4098914 2.53123169,13.5858599 C1.53929377,12.5312185 1.19506635,11.048445 1.62548271,9.68430951 L3.77850028,2.86066623 C4.31478149,1.16100911 5.93502913,5.92505504e-15 7.77070646,1.76503941e-15 Z" id="Rectangle-Copy" fill="#FF4C03"></path>
                    <path d="M10.7216495,16.2946515 C10.5038759,16.3126954 10.2834347,16.3219072 10.0607259,16.3219072 C9.86685636,16.3219072 9.67470511,16.3149267 9.48453608,16.301216 L9.48453608,11.7085922 C8.07284105,11.4367547 7.01030928,10.2527779 7.01030928,8.83338268 C7.01030928,7.21303548 8.39499561,5.89948454 10.1030928,5.89948454 C11.81119,5.89948454 13.1958763,7.21303548 13.1958763,8.83338268 C13.1958763,10.2527779 12.1333445,11.4367547 10.7216495,11.7085922 L10.7216495,16.2946515 Z M10.1030928,10.5937216 C11.1279511,10.5937216 11.9587629,9.80559101 11.9587629,8.83338268 C11.9587629,7.86117434 11.1279511,7.07304381 10.1030928,7.07304381 C9.07823448,7.07304381 8.24742268,7.86117434 8.24742268,8.83338268 C8.24742268,9.80559101 9.07823448,10.5937216 10.1030928,10.5937216 Z" id="Combined-Shape" fill="#FFE2D7" fill-rule="nonzero"></path>
                </g>
            </g>
        </g>
    </g>
</svg>