<?xml version="1.0" encoding="UTF-8"?>
<svg width="134px" height="33px" viewBox="0 0 134 33" version="1.1" xmlns="http://www.w3.org/2000/svg" xmlns:xlink="http://www.w3.org/1999/xlink">
    <!-- Generator: Sketch 52.1 (67048) - http://www.bohemiancoding.com/sketch -->
    <title>Group 3</title>
    <desc>Created with Sketch.</desc>
    <g id="Page-1" stroke="none" stroke-width="1" fill="none" fill-rule="evenodd">
        <g id="iPhone-XS-Max-Copy-9" transform="translate(-22.000000, -30.000000)">
            <g id="Group-3" transform="translate(22.000000, 30.000000)">
                <g id="logo-copy-6">
                    <g id="logo-copy-3">
                        <path d="M4.09990317,15.2334696 C7.53601673,15.9791216 11.0454761,16.3519477 14.6282813,16.3519477 C18.2375807,16.3519477 21.9082168,15.9735873 25.6401894,15.2168665 C27.5976633,14.8199554 29.5154708,16.040924 29.9237323,17.9439762 C29.9768074,18.1913778 30.0023218,18.443617 29.9998342,18.6963306 L29.9330814,25.4777934 C29.9230428,26.4976171 29.5078832,27.4741888 28.774404,28.203327 C25.7210944,31.2385661 21.1161395,32.7561856 14.9595394,32.7561856 C8.8168005,32.7561856 4.21872783,31.245392 1.16532141,28.2238049 C0.418471443,27.4847377 5.71671737e-16,26.4901067 0,25.4540462 L1.4674261e-08,18.4277777 C1.467426e-08,16.6201964 1.50723847,15.1548622 3.36651133,15.1548622 C3.61319933,15.1548622 3.85914001,15.1812229 4.09990317,15.2334696 Z" id="Rectangle" fill="#523E3E"></path>
                        <path d="M2.82351334,14.8329897 L27.1764867,14.8329897 C28.73587,14.8329897 30,16.0958774 30,17.6537283 L30,18.4186313 C30,19.9779152 29.4256718,21.4826823 28.3864852,22.6461163 C25.310438,26.0899426 20.8166307,27.8118557 14.9050633,27.8118557 C8.98745685,27.8118557 4.53515855,26.0864227 1.54816851,22.6355567 C0.549555123,21.4818598 1.8696892e-16,20.0076049 0,18.4823882 L0,17.6537283 C-1.90969384e-16,16.0958774 1.26412998,14.8329897 2.82351334,14.8329897 Z" id="Rectangle" fill="#816161"></path>
                        <path d="M11.6560597,2.77363336e-15 L18.1947211,0 C20.9185334,-2.96116005e-15 23.3298839,1.78595922 24.1590328,4.4174488 L27.5377635,15.1406078 C28.2280387,17.3313511 27.6965453,19.7294166 26.1482966,21.4097967 C23.5445626,24.2357398 19.8203568,25.6487113 14.9756791,25.6487113 C10.096501,25.6487113 6.37022378,24.2155437 3.79684753,21.3492084 C2.30894065,19.6919148 1.79259953,17.3618421 2.43822407,15.2182007 L5.66775042,4.49533265 C6.47217224,1.82444289 8.90254369,9.31080077e-15 11.6560597,2.77363336e-15 Z" id="Rectangle-Copy" fill="#FF4C03"></path>
                        <path d="M16.0824742,25.6058809 C15.7558139,25.6342357 15.425152,25.6487113 15.0910888,25.6487113 C14.8002845,25.6487113 14.5120577,25.6377419 14.2268041,25.6161966 L14.2268041,18.3992164 C12.1092616,17.9720431 10.5154639,16.1115082 10.5154639,13.8810299 C10.5154639,11.33477 12.5924934,9.27061856 15.1546392,9.27061856 C17.7167849,9.27061856 19.7938144,11.33477 19.7938144,13.8810299 C19.7938144,16.1115082 18.2000168,17.9720431 16.0824742,18.3992164 L16.0824742,25.6058809 Z M15.1546392,16.6472768 C16.6919266,16.6472768 17.9381443,15.4087859 17.9381443,13.8810299 C17.9381443,12.353274 16.6919266,11.1147831 15.1546392,11.1147831 C13.6173517,11.1147831 12.371134,12.353274 12.371134,13.8810299 C12.371134,15.4087859 13.6173517,16.6472768 15.1546392,16.6472768 Z" id="Combined-Shape" fill="#FFE2D7" fill-rule="nonzero"></path>
                    </g>
                </g>
                <text id="Ayuda-app" font-family="Clan-Black" font-size="18" font-weight="700" fill="#523E3E">
                    <tspan x="38.269" y="23">Ayuda app</tspan>
                </text>
            </g>
        </g>
    </g>
</svg>