<?xml version="1.0" encoding="UTF-8"?>
<svg width="196px" height="256px" viewBox="0 0 196 256" version="1.1" xmlns="http://www.w3.org/2000/svg" xmlns:xlink="http://www.w3.org/1999/xlink">
    <!-- Generator: Sketch 52.1 (67048) - http://www.bohemiancoding.com/sketch -->
    <title>Group 3</title>
    <desc>Created with Sketch.</desc>
    <g id="Page-1" stroke="none" stroke-width="1" fill="none" fill-rule="evenodd">
        <g id="iPhone-XS-Max-Copy-3" transform="translate(-108.000000, -147.000000)">
            <g id="Group-3" transform="translate(108.000000, 147.000000)">
                <g id="policeman">
                    <path d="M114.226721,186.614242 L139,163.491228 L129.164486,161.675717 C124.417204,160.727412 121.002186,155.255007 121.002186,150.44333 L121.002186,129 L97.9997497,129 L74.9978142,129 L74.9978142,150.44333 C74.9978142,155.255504 71.5822949,160.72791 66.8355141,161.675717 L57,163.491228 L81.7732793,186.614242 C90.894348,195.128586 105.105151,195.128586 114.226721,186.614242 Z" id="Path" fill="#E7BC9D"></path>
                    <path d="M100,129 L100,159.279445 C100,164.062648 103.406022,169.503165 108.139604,170.445364 L127.486328,174 L139,163.287127 L129.191835,161.48236 C124.457754,160.539666 121.052231,155.099644 121.052231,150.31644 L121.052231,129 L100,129 Z" id="Path" fill="#D79A81"></path>
                    <path d="M165.427491,165.585609 L130.571076,159.079259 C129.292019,158.840549 127.971542,159.149969 126.929532,159.932797 L97.5002495,182.036534 L68.070967,159.932296 C67.0289575,159.149468 65.70848,158.840048 64.4294233,159.078758 L29.573008,165.585107 C12.0390024,170.773036 0,186.946636 0,205.314261 L0,247.298622 C0,252.104415 3.87659471,256 8.65895917,256 L186.341041,256 C191.123405,256 195,252.104415 195,247.298622 L195,205.314763 C195.000499,186.947138 182.961497,170.773538 165.427491,165.585609 Z" id="Path" fill="#C7B29B"></path>
                    <g id="Group" transform="translate(111.000000, 159.000000)" fill="#927E69">
                        <path d="M54.9511943,6.854 L19.9047915,0.367 C18.6187633,0.129 17.2910883,0.4375 16.2433993,1.218 L0.704183746,12.792 L34.0561201,18.9655 C51.6856961,24.138 63.7898163,28.99 63.7898163,47.3035 L63.7898163,97 L75.9792367,97 C80.7876678,97 84.6853922,93.116 84.6853922,88.3245 L84.6853922,46.465 C84.6853922,28.152 72.5807703,12.0265 54.9511943,6.854 Z" id="Path"></path>
                    </g>
                    <path d="M98,0 C60.9969148,0 31,25.6517723 31,40.1467498 C31,54.6417273 60.9969148,65 98,65 C135.003085,65 165,54.6417273 165,40.1467498 C165,25.6517723 135.003085,0 98,0 Z" id="Path" fill="#004139"></path>
                    <path d="M97.625272,0 C94.0097071,0 90.4614226,0.245162184 87,0.695460074 C119.161004,4.88222978 143.749456,27.0604015 143.749456,40.1470588 C143.749456,53.2337162 119.161004,62.947142 87,64.711309 C90.4614226,64.9009345 94.0097071,65 97.625272,65 C134.835314,65 165,54.6416476 165,40.1465585 C165,25.6514694 134.835314,0 97.625272,0 Z" id="Path" fill="#063530"></path>
                    <path d="M145.886922,80.8426869 L142.830544,80.8426869 L142.830544,77.2333253 L142.830544,68.606389 C142.830544,56.4252956 137.857191,44.6215992 128.677575,36.6736766 C121.480812,30.4421078 74.520186,30.4421078 67.3229239,36.6736766 C58.1433078,44.6215992 53.1699552,56.4252956 53.1699552,68.606389 L53.1699552,77.2333253 L53.1699552,80.8426869 L50.1135768,80.8426869 C45.6323191,80.8426869 42,84.4957101 42,89.0013898 L42,98.0428606 C42,102.549042 45.6328182,106.201563 50.1135768,106.201563 L53.1824323,106.201563 C53.4354669,118.042397 58.3833663,129.439589 67.3229239,137.179742 C74.520186,143.411311 84.6365791,148.850446 97.9999999,149 C111.36392,148.849945 121.480313,143.410809 128.677076,137.179742 C137.616634,129.439589 142.565032,118.042397 142.817568,106.201563 L145.886423,106.201563 C150.367681,106.201563 154,102.54854 154,98.0428606 L154,89.0013898 C154.000998,84.4957101 150.36818,80.8426869 145.886922,80.8426869 Z" id="Path" fill="#E7BC9D"></path>
                    <path d="M145.92934,80.842376 L142.889128,80.842376 L142.889128,77.2329979 L142.889128,68.6055205 C142.889128,56.4243714 137.942082,44.6206212 128.811021,36.6726624 C124.304319,32.7496218 104.121959,31.2972385 88,32.3140072 C97.4860169,32.9122244 105.567102,34.3646077 108.219096,36.6726624 C117.350157,44.6206212 122.297203,56.4243714 122.297203,68.6055205 L122.297203,77.2329979 L122.285289,106.200866 C122.033593,118.041754 117.111865,129.438998 108.219593,137.179187 C103.041205,141.686894 96.3417177,145.77856 88.0004964,147.754885 C91.1901373,148.510686 94.6190634,148.958346 98.2962105,149 C111.589442,148.849944 121.652325,143.410784 128.811021,137.179187 C137.703293,129.438998 142.625517,118.041754 142.876717,106.200866 L145.92934,106.200866 C150.386894,106.200866 154,102.547827 154,98.0421263 L154,89.0006142 C154.000496,84.4954159 150.386894,80.842376 145.92934,80.842376 Z" id="Path" fill="#D79A81"></path>
                    <path d="M47,53.1084235 L47,81.327253 C47,81.327253 53.8403805,81.1704621 58.2358477,85.5757313 C59.1513833,86.4932857 60.7071467,85.8227652 60.7071467,84.5185272 L60.7071467,63.6209748 L136.292853,63.6209748 L136.292853,84.5185272 C136.292853,85.8227652 137.848617,86.4932857 138.764152,85.5757313 C143.15962,81.1704621 150,81.327253 150,81.327253 L150,53.1084235 C150,35.6305255 47,35.6305255 47,53.1084235 Z" id="Path" fill="#383635"></path>
                    <path d="M98.5,76 C70.0571603,76 47,67.0457483 47,56 L150,56 C150,67.0457483 126.94284,76 98.5,76 Z" id="Path" fill="#004139"></path>
                    <path d="M47,42.3296207 L47,56 L150,56 L150,42.4728025 C150,38.8037695 147.510779,35.6045518 143.950694,34.6962424 C134.419963,32.2641409 115.036894,28.0079632 96.089438,28.0000087 C78.6275496,27.9930485 61.5345639,32.1691835 52.8641078,34.6022794 C49.3951289,35.5762137 47,38.7316815 47,42.3296207 Z" id="Path" fill="#063530"></path>
                    <g id="Group" transform="translate(43.000000, 220.000000)" fill="#927E69">
                        <path d="M108.2495,16.5260606 L87.8985,16.5260606 C86.5465,16.5260606 85.45,15.3968485 85.45,14.0033636 L85.45,2.83281818 C85.45,1.43984848 86.546,0.310121212 87.8985,0.310121212 L108.2495,0.310121212 C109.6015,0.310121212 110.698,1.43933333 110.698,2.83281818 L110.698,14.0033636 C110.698,15.3963333 109.602,16.5260606 108.2495,16.5260606 Z" id="Path"></path>
                        <path d="M23.1015,16.5260606 L2.7505,16.5260606 C1.3985,16.5260606 0.302,15.3968485 0.302,14.0033636 L0.302,2.83281818 C0.302,1.43984848 1.398,0.310121212 2.7505,0.310121212 L23.1015,0.310121212 C24.4535,0.310121212 25.55,1.43933333 25.55,2.83281818 L25.55,14.0033636 C25.55,15.3963333 24.4535,16.5260606 23.1015,16.5260606 Z" id="Path"></path>
                    </g>
                    <g id="Group" transform="translate(24.000000, 216.000000)" fill="#927E69">
                        <path d="M143.6895,0.441518987 C141.555,0.441518987 139.825,2.19341772 139.825,4.35493671 L139.825,40 L147.554,40 L147.554,4.35493671 C147.5535,2.19341772 145.8235,0.441518987 143.6895,0.441518987 Z" id="Path"></path>
                        <path d="M4.3105,0.441518987 C2.176,0.441518987 0.446,2.19341772 0.446,4.35493671 L0.446,40 L8.175,40 L8.175,4.35493671 C8.175,2.19341772 6.445,0.441518987 4.3105,0.441518987 Z" id="Path"></path>
                    </g>
                    <path d="M143.326172,161.666992 L119.317013,203.467722 C117.538239,206.591389 114.269744,207.745518 111.453971,206.244917 L97.1416016,182.098633 L126.041763,160.440954 C127.331374,159.231017 128.965621,158.752778 130.548606,159.121727 L143.326172,161.666992 Z" id="Path" fill="#927E69"></path>
                    <path d="M97.7849184,161.553711 L73.6085164,203.467722 C71.8297433,206.591389 68.5612477,207.745518 65.7454746,206.244917 L51.4331055,182.098633 L80.333267,160.440954 C81.6228776,159.231017 83.2571254,158.752778 84.8401099,159.121727 L97.7849184,161.553711 Z" id="Path" fill="#927E69" transform="translate(74.609012, 182.948733) scale(-1, 1) translate(-74.609012, -182.948733) "></path>
                    <path d="" id="Path-2" stroke="#979797"></path>
                    <g id="Group-2" transform="translate(22.000000, 162.000000)">
                        <path d="M25.8087457,0.108855411 L10.442001,3.02246094 C3.91735092,4.581014 0.605293993,5.57352702 0.505830198,6 C-0.269069275,9.95654297 0.310990461,14.2977295 1.51472098,18.1186523 C2.59161877,19.6853638 27.6231146,14.934082 28.6430229,13.1162109 C29.2598838,12.0167262 29.0990425,8.23999905 28.160499,1.78602946 L28.1604967,1.78602979 C28.0015411,0.692958855 26.986573,-0.0642912404 25.8935021,0.0946643664 C25.8651516,0.098787128 25.836893,0.103518568 25.8087457,0.108855411 Z" id="Path-3" fill="#004139"></path>
                        <path d="M8.78820801,3.46496582 C8.43581508,3.14860821 4.26938612,4.07867432 4.21325684,4.71838379 C3.92172997,8.67492676 3.98281047,14.5037842 4.43566895,18.324707 C4.43566895,18.6627197 8.43029785,18.2151365 9.06408691,17.8081055 C9.69787598,17.4010744 9.14060093,3.78132343 8.78820801,3.46496582 Z" id="Path-3" fill="#FFBF14"></path>
                        <path d="M15.9914151,2.07894973 C15.6390221,1.76259213 11.1578959,2.45706253 11.1017666,3.096772 C10.8102398,7.05331497 11.0602031,13.59729 11.5130615,17.4182129 C11.5130615,17.7562256 15.6333008,17.0300779 16.2670898,16.6230469 C16.9008789,16.2160158 16.343808,2.39530734 15.9914151,2.07894973 Z" id="Path-3-Copy" fill="#FFBF14"></path>
                        <path d="M23.7487793,0.538085937 C23.489502,0.361206055 19.1574506,1.06555176 18.9969482,1.48132324 C18.7054214,5.43786621 18.7045922,12.1152344 19.1574506,15.9361572 C19.1574506,16.2741699 23.2815961,15.4241209 23.9153852,15.0170898 C24.5491743,14.6100588 24.0080566,0.71496582 23.7487793,0.538085937 Z" id="Path-3-Copy-2" fill="#FFBF14"></path>
                    </g>
                </g>
                <g id="Group" transform="translate(84.000000, 181.000000)" fill="#2D2E30">
                    <polygon id="Path" points="13.7849184 0.53515625 3 18.3549805 8.05957031 25.8974668 18.6075703 25.8974668 23.3203125 18.3549805"></polygon>
                    <polygon id="Path" points="18.774 24.8974668 8.226 24.8974668 0.0995 75 27.9005 75"></polygon>
                </g>
                <g id="Group-2" transform="translate(156.000000, 170.500000) scale(-1, 1) rotate(1.000000) translate(-156.000000, -170.500000) translate(141.000000, 161.000000)">
                    <path d="M25.8087457,0.108855411 L10.442001,3.02246094 C3.91735092,4.581014 0.605293993,5.57352702 0.505830198,6 C-0.269069275,9.95654297 0.310990461,14.2977295 1.51472098,18.1186523 C2.59161877,19.6853638 27.6231146,14.934082 28.6430229,13.1162109 C29.2598838,12.0167262 29.0990425,8.23999905 28.160499,1.78602946 L28.1604967,1.78602979 C28.0015411,0.692958855 26.986573,-0.0642912404 25.8935021,0.0946643664 C25.8651516,0.098787128 25.836893,0.103518568 25.8087457,0.108855411 Z" id="Path-3" fill="#063530"></path>
                    <path d="M8.78820801,3.46496582 C8.43581508,3.14860821 4.26938612,4.07867432 4.21325684,4.71838379 C3.92172997,8.67492676 3.98281047,14.5037842 4.43566895,18.324707 C4.43566895,18.6627197 8.43029785,18.2151365 9.06408691,17.8081055 C9.69787598,17.4010744 9.14060093,3.78132343 8.78820801,3.46496582 Z" id="Path-3" fill="#D19A05"></path>
                    <path d="M15.9914151,2.07894973 C15.6390221,1.76259213 11.1578959,2.45706253 11.1017666,3.096772 C10.8102398,7.05331497 11.0602031,13.59729 11.5130615,17.4182129 C11.5130615,17.7562256 15.6333008,17.0300779 16.2670898,16.6230469 C16.9008789,16.2160158 16.343808,2.39530734 15.9914151,2.07894973 Z" id="Path-3-Copy" fill="#D19A05"></path>
                    <path d="M23.7487793,0.538085937 C23.489502,0.361206055 19.1574506,1.06555176 18.9969482,1.48132324 C18.7054214,5.43786621 18.7045922,12.1152344 19.1574506,15.9361572 C19.1574506,16.2741699 23.2815961,15.4241209 23.9153852,15.0170898 C24.5491743,14.6100588 24.0080566,0.71496582 23.7487793,0.538085937 Z" id="Path-3-Copy-2" fill="#D19A05"></path>
                </g>
                <path d="M49.3457031,47.7539062 C80.5071615,40.2565104 112.711589,40.2565104 145.958984,47.7539062 C145.958984,47.7539062 145.958984,49.8030511 145.958984,53.9013409 C112.901693,50.5022348 80.6972656,50.5022348 49.3457031,53.9013409 C49.3457031,53.9013409 49.3457031,51.852196 49.3457031,47.7539062 Z" id="Path-5" fill="#D19A05"></path>
                <ellipse id="Oval" fill="#FFBF14" cx="48" cy="51.5" rx="3" ry="4.5"></ellipse>
                <ellipse id="Oval-Copy-3" fill="#AD8415" cx="148" cy="51.5" rx="3" ry="4.5"></ellipse>
                <path d="" id="Path-4" stroke="#979797"></path>
            </g>
        </g>
    </g>
</svg>