<?xml version="1.0" encoding="UTF-8"?>
<svg width="24px" height="27px" viewBox="0 0 24 27" version="1.1" xmlns="http://www.w3.org/2000/svg" xmlns:xlink="http://www.w3.org/1999/xlink">
    <!-- Generator: Sketch 52.1 (67048) - http://www.bohemiancoding.com/sketch -->
    <title>Group 6</title>
    <desc>Created with Sketch.</desc>
    <g id="Page-1" stroke="none" stroke-width="1" fill="none" fill-rule="evenodd">
        <g id="iPhone-XS-Max-Copy-18" transform="translate(-199.000000, -432.000000)">
            <g id="Group-6" transform="translate(199.000000, 432.000000)">
                <path d="M12,0 C5.65661396,0 0.514285714,4.56922194 0.514285714,7.15113981 C0.514285714,9.73305767 5.65661396,11.578125 12,11.578125 C18.343386,11.578125 23.4857143,9.73305767 23.4857143,7.15113981 C23.4857143,4.56922194 18.343386,0 12,0 Z" id="Path" fill="#004139"></path>
                <path d="M11.9357609,0 C11.3159498,0 10.7076724,0.0436695141 10.1142857,0.123878826 C15.6276007,0.86964718 19.8427639,4.82013402 19.8427639,7.15119485 C19.8427639,9.48225569 15.6276007,11.2124597 10.1142857,11.5267019 C10.7076724,11.560479 11.3159498,11.578125 11.9357609,11.578125 C18.3146252,11.578125 23.4857143,9.73304347 23.4857143,7.15110573 C23.4857143,4.56916799 18.3146252,0 11.9357609,0 Z" id="Path" fill="#063530"></path>
                <path d="M20.2091866,14.4001036 L19.6852361,14.4001036 L19.6852361,13.7571861 L19.6852361,12.220513 C19.6852361,10.0507558 18.8326613,7.94822236 17.2590129,6.53249864 C16.025282,5.42250045 7.97488903,5.42250045 6.74107266,6.53249864 C5.1674242,7.94822236 4.31484947,10.0507558 4.31484947,12.220513 L4.31484947,13.7571861 L4.31484947,14.4001036 L3.79089888,14.4001036 C3.02268328,14.4001036 2.4,15.0507984 2.4,15.8533726 L2.4,17.4638845 C2.4,18.2665481 3.02276883,18.9171535 3.79089888,18.9171535 L4.31698839,18.9171535 C4.36036575,21.026302 5.20857708,23.0564268 6.74107266,24.4351416 C7.97488903,25.5451398 9.70912784,26.5139858 12,26.540625 C14.2909577,26.5138964 16.0251965,25.5450504 17.2589273,24.4351416 C18.7914229,23.0564268 19.6397198,21.026302 19.6830116,18.9171535 L20.2091011,18.9171535 C20.9773167,18.9171535 21.6,18.2664587 21.6,17.4638845 L21.6,15.8533726 C21.6001711,15.0507984 20.9774022,14.4001036 20.2091866,14.4001036 Z" id="Path" fill="#E7BC9D"></path>
                <path d="M20.2164582,14.4000482 L19.6952791,14.4000482 L19.6952791,13.7571278 L19.6952791,12.2203583 C19.6952791,10.0505912 18.847214,7.94804816 17.2818893,6.53231799 C16.5093118,5.83352638 13.0494787,5.57482062 10.2857143,5.75593253 C11.9118886,5.86248998 13.2972176,6.12119574 13.7518451,6.53231799 C15.3171698,7.94804816 16.1652349,10.0505912 16.1652349,12.2203583 L16.1652349,13.7571278 L16.1631924,18.9170293 C16.1200444,21.0261875 15.2763197,23.0563215 13.7519302,24.4350426 C12.8642065,25.237978 11.715723,25.966806 10.2857994,26.3188389 C10.832595,26.453466 11.4204109,26.5332053 12.0507789,26.540625 C14.3296187,26.5138962 16.0546843,25.5450459 17.2818893,24.4350426 C18.8062788,23.0563215 19.6500887,21.0261875 19.6931515,18.9170293 L20.2164582,18.9170293 C20.9806104,18.9170293 21.6,18.2663316 21.6,17.4637537 L21.6,15.8532344 C21.6000851,15.050746 20.9806104,14.4000482 20.2164582,14.4000482 Z" id="Path" fill="#D79A81"></path>
                <path d="M3.25714286,9.45993793 L3.25714286,14.4864169 C3.25714286,14.4864169 4.42977951,14.4584886 5.18328818,15.2431771 C5.34023714,15.4066165 5.60693944,15.2871801 5.60693944,15.0548627 L5.60693944,11.3324861 L18.5644891,11.3324861 L18.5644891,15.0548627 C18.5644891,15.2871801 18.8311914,15.4066165 18.9881404,15.2431771 C19.7416491,14.4584886 20.9142857,14.4864169 20.9142857,14.4864169 L20.9142857,9.45993793 C20.9142857,6.34668736 3.25714286,6.34668736 3.25714286,9.45993793 Z" id="Path" fill="#383635"></path>
                <path d="M12.0857143,13.5375 C7.2097989,13.5375 3.25714286,11.9425239 3.25714286,9.975 L20.9142857,9.975 C20.9142857,11.9425239 16.9616297,13.5375 12.0857143,13.5375 Z" id="Path" fill="#004139"></path>
                <path d="M3.25714286,7.53996369 L3.25714286,9.975 L20.9142857,9.975 L20.9142857,7.56546794 C20.9142857,6.91192145 20.487562,6.34206079 19.8772618,6.18026818 C18.2434222,5.7470501 14.9206103,4.98891845 11.6724751,4.98750155 C8.67900851,4.98626176 5.74878239,5.73013582 4.26241849,6.16353101 C3.66773638,6.33701307 3.25714286,6.89908077 3.25714286,7.53996369 Z" id="Path" fill="#063530"></path>
                <path d="M3.6,8.3465387 C9.01863907,6.81782043 14.6186391,6.81782043 20.4,8.3465387 C20.4,8.3465387 20.4,8.76435913 20.4,9.6 C14.6516961,8.90692261 9.05169611,8.90692261 3.6,9.6 C3.6,9.6 3.6,9.18217957 3.6,8.3465387 Z" id="Path-5" fill="#D19A05"></path>
                <circle id="Oval" fill="#FFBF14" cx="3" cy="9" r="1"></circle>
                <circle id="Oval-Copy-3" fill="#AD8415" cx="21" cy="9" r="1"></circle>
                <path d="" id="Path-4" stroke="#979797"></path>
            </g>
        </g>
    </g>
</svg>