<?xml version="1.0" encoding="UTF-8"?>
<svg width="135px" height="39px" viewBox="0 0 135 39" version="1.1" xmlns="http://www.w3.org/2000/svg" xmlns:xlink="http://www.w3.org/1999/xlink">
    <!-- Generator: Sketch 52.1 (67048) - http://www.bohemiancoding.com/sketch -->
    <title>Group 12</title>
    <desc>Created with Sketch.</desc>
    <g id="Page-1" stroke="none" stroke-width="1" fill="none" fill-rule="evenodd">
        <g id="iPhone-XS-Max-Copy-11" transform="translate(-22.000000, -27.000000)">
            <g id="Group-12" transform="translate(22.000000, 27.000000)">
                <g id="alarma-copy-3">
                    <g id="Group-10" transform="translate(4.970977, 12.072374)">
                        <g id="Group-8">
                            <g id="Group-7" transform="translate(2.603845, 0.000000)">
                                <path d="M7.14252155,8.8817842e-14 L17.002226,8.96588162e-14 C19.3405085,8.92292807e-14 21.3285643,1.70711709 21.6820734,4.01852284 L24.1447475,20.1206229 L0,20.1206229 L2.46267413,4.01852284 C2.81618325,1.70711709 4.80423901,9.00883518e-14 7.14252155,8.8817842e-14 Z" id="Rectangle" fill="#E30027" transform="translate(12.072374, 10.060311) scale(-1, 1) translate(-12.072374, -10.060311) "></path>
                                <path d="M20.0976022,1.15795738 C20.7970056,1.76230161 21.3202722,2.5707415 21.5717827,3.50117002 L24.1447475,20.1264808 L-5.68434189e-14,20.1264808 L20.0976022,1.15795738 Z" id="Combined-Shape" fill="#CC012C"></path>
                            </g>
                            <path d="M2.84055853,20.1206229 L26.5118796,20.1206229 C28.0806768,20.1206229 29.3524381,21.3923843 29.3524381,22.9611815 L29.3524381,26.5118796 L0,26.5118796 L0,22.9611815 C-1.92122242e-16,21.3923843 1.27176137,20.1206229 2.84055853,20.1206229 Z" id="Rectangle" fill="#3A413D"></path>
                            <path d="M2.84055853,19.4104833 L26.5118796,19.4104833 C27.034812,19.4104833 27.4587325,19.8344037 27.4587325,20.3573361 L1.89370569,20.3573361 C1.89370569,19.8344037 2.31762614,19.4104833 2.84055853,19.4104833 Z" id="Rectangle-Copy-15" fill="#5E6662"></path>
                        </g>
                        <path d="M7.73678441,5.91783027 C7.38605019,5.91783027 7.10139633,5.63317641 7.10139633,5.28244219 C7.10139633,3.41355401 8.62124465,1.89370569 10.4901328,1.89370569 C10.840867,1.89370569 11.1255209,2.17835955 11.1255209,2.52909377 C11.1255209,2.879828 10.840867,3.16448188 10.4901328,3.16448188 C9.32186592,3.16448188 8.37217252,4.11502246 8.37217252,5.28244219 C8.37217252,5.63317641 8.08751864,5.91783027 7.73678441,5.91783027 Z" id="Path" fill="#FF2755"></path>
                    </g>
                    <g id="Group-9" fill="#CC012C">
                        <path d="M19.5288399,4.97097743 C19.07151,4.97097743 18.7003437,4.63692774 18.7003437,4.22533081 L18.7003437,0.745646614 C18.7003437,0.334049683 19.07151,0 19.5288399,0 C19.9861698,0 20.3573361,0.334049683 20.3573361,0.745646614 L20.3573361,4.22533081 C20.3573361,4.63692774 19.9861698,4.97097743 19.5288399,4.97097743 Z" id="Path"></path>
                        <path d="M36.8089043,18.9370569 C36.3515744,18.9370569 35.980408,18.6030072 35.980408,18.1914103 L35.980408,14.7117261 C35.980408,14.3001291 36.3515744,13.9660794 36.8089043,13.9660794 C37.2662342,13.9660794 37.6374005,14.3001291 37.6374005,14.7117261 L37.6374005,18.1914103 C37.6374005,18.6030072 37.2662342,18.9370569 36.8089043,18.9370569 Z" id="Path" transform="translate(36.808904, 16.451568) rotate(90.000000) translate(-36.808904, -16.451568) "></path>
                        <path d="M2.48548871,18.9370569 C2.02815879,18.9370569 1.65699248,18.6030072 1.65699248,18.1914103 L1.65699248,14.7117261 C1.65699248,14.3001291 2.02815879,13.9660794 2.48548871,13.9660794 C2.94281864,13.9660794 3.31398495,14.3001291 3.31398495,14.7117261 L3.31398495,18.1914103 C3.31398495,18.6030072 2.94281864,18.9370569 2.48548871,18.9370569 Z" id="Path-Copy" transform="translate(2.485489, 16.451568) rotate(90.000000) translate(-2.485489, -16.451568) "></path>
                        <path d="M30.3480717,8.04824917 C30.1537233,8.04824917 29.9593748,7.97436094 29.8115891,7.82557234 C29.5150054,7.52900728 29.5150054,7.04822777 29.8115891,6.75166271 L32.3168611,4.24654837 C32.6134448,3.94998333 33.0942545,3.94998333 33.3908382,4.24654837 C33.6874219,4.54311342 33.6874219,5.02389294 33.3908382,5.320458 L30.884554,7.82557234 C30.7367682,7.97436094 30.5424201,8.04824917 30.3480717,8.04824917 Z" id="Path"></path>
                        <path d="M8.70941724,8.04824917 C8.51502,8.04824917 8.32062273,7.97436094 8.1727998,7.82557234 L5.6668976,5.320458 C5.37023926,5.02389294 5.37023926,4.54311342 5.6668976,4.24654837 C5.96355593,3.94998333 6.44448665,3.94998333 6.74114498,4.24654837 L9.24603468,6.75267487 C9.54269303,7.04923993 9.54269303,7.53001945 9.24603468,7.8265845 C9.09821178,7.97436094 8.90381451,8.04824917 8.70941724,8.04824917 Z" id="Path"></path>
                    </g>
                </g>
                <g id="Group-13" transform="translate(49.000000, 1.000000)">
                    <path d="M1,37.8674033 L1,22.1325967 L4.52363636,22.1325967 C5.16848807,22.1325967 5.7365632,22.2136272 6.22787879,22.3756906 C6.71919438,22.537754 7.16444245,22.825044 7.56363636,23.2375691 C7.96283028,23.6500941 8.23919115,24.1325939 8.39272727,24.6850829 C8.54626339,25.2375718 8.6230303,25.9852623 8.6230303,26.9281768 C8.6230303,27.6353627 8.5808085,28.2320418 8.49636364,28.718232 C8.41191877,29.2044223 8.23151653,29.6611397 7.95515152,30.0883978 C7.63272566,30.6040541 7.20283097,31.0055234 6.66545455,31.2928177 C6.12807812,31.5801119 5.42182256,31.7237569 4.54666667,31.7237569 L3.34909091,31.7237569 L3.34909091,37.8674033 L1,37.8674033 Z M3.34909091,24.2541436 L3.34909091,29.6022099 L4.47757576,29.6022099 C4.95353773,29.6022099 5.3220189,29.5359123 5.5830303,29.4033149 C5.84404171,29.2707176 6.03595898,29.0865573 6.15878788,28.8508287 C6.28161678,28.6298331 6.35454534,28.357276 6.37757576,28.0331492 C6.40060618,27.7090223 6.41212121,27.3480683 6.41212121,26.9502762 C6.41212121,26.5819503 6.40444452,26.2320459 6.38909091,25.9005525 C6.3737373,25.5690591 6.30464708,25.278086 6.18181818,25.0276243 C6.05898928,24.7771627 5.8747487,24.585636 5.62909091,24.4530387 C5.38343312,24.3204413 5.03030533,24.2541436 4.56969697,24.2541436 L3.34909091,24.2541436 Z M10.6189899,25.8453039 C10.6189899,25.2117832 10.7341403,24.6519361 10.9644444,24.1657459 C11.1947486,23.6795556 11.5018163,23.2744031 11.8856566,22.9502762 C12.2541433,22.6408824 12.6725229,22.4051573 13.1408081,22.2430939 C13.6090933,22.0810305 14.0812097,22 14.5571717,22 C15.0331337,22 15.5052502,22.0810305 15.9735354,22.2430939 C16.4418205,22.4051573 16.8678769,22.6408824 17.2517172,22.9502762 C17.6202039,23.2744031 17.9195948,23.6795556 18.149899,24.1657459 C18.3802032,24.6519361 18.4953535,25.2117832 18.4953535,25.8453039 L18.4953535,34.1546961 C18.4953535,34.8176829 18.3802032,35.3848964 18.149899,35.8563536 C17.9195948,36.3278108 17.6202039,36.7182305 17.2517172,37.0276243 C16.8678769,37.3517512 16.4418205,37.5948427 15.9735354,37.7569061 C15.5052502,37.9189695 15.0331337,38 14.5571717,38 C14.0812097,38 13.6090933,37.9189695 13.1408081,37.7569061 C12.6725229,37.5948427 12.2541433,37.3517512 11.8856566,37.0276243 C11.5018163,36.7182305 11.1947486,36.3278108 10.9644444,35.8563536 C10.7341403,35.3848964 10.6189899,34.8176829 10.6189899,34.1546961 L10.6189899,25.8453039 Z M12.9680808,34.1546961 C12.9680808,34.6998186 13.125453,35.1012878 13.440202,35.359116 C13.7549511,35.6169442 14.1272706,35.7458564 14.5571717,35.7458564 C14.9870729,35.7458564 15.3593924,35.6169442 15.6741414,35.359116 C15.9888905,35.1012878 16.1462626,34.6998186 16.1462626,34.1546961 L16.1462626,25.8453039 C16.1462626,25.3001814 15.9888905,24.8987122 15.6741414,24.640884 C15.3593924,24.3830558 14.9870729,24.2541436 14.5571717,24.2541436 C14.1272706,24.2541436 13.7549511,24.3830558 13.440202,24.640884 C13.125453,24.8987122 12.9680808,25.3001814 12.9680808,25.8453039 L12.9680808,34.1546961 Z M20.9519192,37.8674033 L20.9519192,22.1325967 L23.3010101,22.1325967 L23.3010101,35.6132597 L27.9531313,35.6132597 L27.9531313,37.8674033 L20.9519192,37.8674033 Z M29.9260606,37.8674033 L29.9260606,22.1325967 L32.2751515,22.1325967 L32.2751515,37.8674033 L29.9260606,37.8674033 Z M42.4008081,33.3812155 L42.4008081,34.3535912 C42.4008081,34.8397814 42.3048494,35.300182 42.1129293,35.7348066 C41.9210091,36.1694313 41.6561633,36.5561677 41.3183838,36.8950276 C40.9806044,37.2338875 40.5852548,37.5027614 40.1323232,37.7016575 C39.6793917,37.9005535 39.1919218,38 38.669899,38 C38.2246442,38 37.7717195,37.9410687 37.3111111,37.8232044 C36.8505027,37.7053401 36.4359614,37.4990807 36.0674747,37.2044199 C35.6989881,36.9097591 35.3957588,36.5303891 35.1577778,36.0662983 C34.9197968,35.6022076 34.8008081,35.0092117 34.8008081,34.2872928 L34.8008081,25.6243094 C34.8008081,25.108653 34.8929284,24.6298365 35.0771717,24.1878453 C35.2614151,23.7458541 35.5224226,23.3628009 35.860202,23.038674 C36.1979815,22.7145472 36.6010078,22.4604061 37.0692929,22.2762431 C37.5375781,22.0920801 38.0557547,22 38.6238384,22 C39.7292985,22 40.6274713,22.3462212 41.3183838,23.038674 C41.6561633,23.3775339 41.9210091,23.7790032 42.1129293,24.2430939 C42.3048494,24.7071846 42.4008081,25.2117836 42.4008081,25.7569061 L42.4008081,26.640884 L40.0517172,26.640884 L40.0517172,25.8895028 C40.0517172,25.4475116 39.9212134,25.0644583 39.660202,24.7403315 C39.3991906,24.4162046 39.0460628,24.2541436 38.6008081,24.2541436 C38.0173708,24.2541436 37.6296979,24.4272543 37.4377778,24.7734807 C37.2458576,25.1197071 37.149899,25.5580084 37.149899,26.0883978 L37.149899,34.1325967 C37.149899,34.5893209 37.2535343,34.9723741 37.4608081,35.281768 C37.6680818,35.5911618 38.0404014,35.7458564 38.5777778,35.7458564 C38.7313139,35.7458564 38.8963628,35.7200739 39.0729293,35.6685083 C39.2494958,35.6169427 39.4145447,35.532229 39.5680808,35.4143646 C39.7062633,35.2965003 39.8214137,35.1344393 39.9135354,34.9281768 C40.005657,34.7219143 40.0517172,34.4640899 40.0517172,34.1546961 L40.0517172,33.3812155 L42.4008081,33.3812155 Z M44.7652525,37.8674033 L44.7652525,22.1325967 L47.1143434,22.1325967 L47.1143434,37.8674033 L44.7652525,37.8674033 Z M54.5224242,32.3646409 L53.3709091,26.6629834 L53.3248485,26.6629834 L52.1733333,32.3646409 L54.5224242,32.3646409 Z M48.7187879,37.8674033 L52.3806061,22.1325967 L54.3381818,22.1325967 L58,37.8674033 L55.6509091,37.8674033 L54.96,34.4861878 L51.7587879,34.4861878 L51.0678788,37.8674033 L48.7187879,37.8674033 Z" id="POLICIA" fill="#3A413D"></path>
                    <path d="M3.2103813,15.8662953 L3.2103813,9.15877437 L0,0 L2.47657986,0 L4.35694605,6.30640669 L4.40280864,6.30640669 L6.28317483,0 L8.75975469,0 L5.54937339,9.15877437 L5.54937339,15.8662953 L3.2103813,15.8662953 Z M13.7740645,10.3175487 L12.6274998,4.56824513 L12.5816372,4.56824513 L11.4350724,10.3175487 L13.7740645,10.3175487 Z M7.99537819,15.8662953 L11.6414541,0 L13.5906142,0 L17.2366901,15.8662953 L14.897698,15.8662953 L14.2097591,12.4568245 L11.0223091,12.4568245 L10.3343703,15.8662953 L7.99537819,15.8662953 Z M18.6737179,15.8662953 L18.6737179,0 L20.9209848,0 L24.4524042,9.55988858 L24.4982668,9.55988858 L24.4982668,0 L26.8372589,0 L26.8372589,15.8662953 L24.6358546,15.8662953 L21.0585726,6.32869081 L21.01271,6.32869081 L21.01271,15.8662953 L18.6737179,15.8662953 Z M34.0529731,10.3175487 L32.9064083,4.56824513 L32.8605457,4.56824513 L31.713981,10.3175487 L34.0529731,10.3175487 Z M28.2742867,15.8662953 L31.9203626,0 L33.8695227,0 L37.5155986,15.8662953 L35.1766065,15.8662953 L34.4886677,12.4568245 L31.3012177,12.4568245 L30.6132788,15.8662953 L28.2742867,15.8662953 Z M39.0443516,15.8662953 L39.0443516,0 L42.5528397,0 C43.1949192,0 43.7605522,0.0817076323 44.2497556,0.245125348 C44.738959,0.408543064 45.1822929,0.69823376 45.5797707,1.11420613 C45.9772485,1.5301785 46.2524212,2.01671031 46.4052973,2.57381616 C46.5581734,3.13092201 46.6346103,3.88486061 46.6346103,4.8356546 C46.6346103,5.54875008 46.59257,6.15041538 46.5084881,6.64066852 C46.4244063,7.13092167 46.2447796,7.5914556 45.9696027,8.02228412 C45.648563,8.54224958 45.2205164,8.94707376 44.6854502,9.2367688 C44.150384,9.52646384 43.4471646,9.67130919 42.575771,9.67130919 L41.3833437,9.67130919 L41.3833437,15.8662953 L39.0443516,15.8662953 Z M41.3833437,2.13927577 L41.3833437,7.53203343 L42.5069772,7.53203343 C42.980893,7.53203343 43.34779,7.46518173 43.6076793,7.33147632 C43.8675686,7.19777092 44.0586608,7.01207175 44.1809617,6.77437326 C44.3032625,6.55153092 44.3758776,6.27669616 44.398809,5.94986072 C44.4217404,5.62302529 44.4332059,5.25905493 44.4332059,4.85793872 C44.4332059,4.48653482 44.4255622,4.13370641 44.4102746,3.7994429 C44.394987,3.46517939 44.3261938,3.17177471 44.203893,2.91922006 C44.0815921,2.6666654 43.8981436,2.47353827 43.6535419,2.33983287 C43.4089402,2.20612747 43.0573305,2.13927577 42.5987023,2.13927577 L41.3833437,2.13927577 Z M52.6349658,10.3175487 L51.488401,4.56824513 L51.4425384,4.56824513 L50.2959737,10.3175487 L52.6349658,10.3175487 Z M46.8562794,15.8662953 L50.5023553,0 L52.4515154,0 L56.0975913,15.8662953 L53.7585992,15.8662953 L53.0706604,12.4568245 L49.8832104,12.4568245 L49.1952715,15.8662953 L46.8562794,15.8662953 Z M57.6263443,15.8662953 L57.6263443,0 L59.9653364,0 L59.9653364,7.24233983 L60.011199,7.24233983 L63.427962,0 L65.766954,0 L62.579504,6.35097493 L66.3631677,15.8662953 L63.8865879,15.8662953 L61.2265576,8.82451253 L59.9653364,11.1197772 L59.9653364,15.8662953 L57.6263443,15.8662953 Z M75.3445916,0 L75.3445916,12.3008357 C75.3445916,12.8208011 75.2490455,13.299905 75.0579504,13.7381616 C74.8668553,14.1764182 74.5955044,14.5663864 74.2438894,14.908078 C73.8922745,15.2497696 73.487159,15.5171764 73.0285308,15.7103064 C72.5699026,15.9034364 72.0807065,16 71.5609279,16 C71.0411493,16 70.5557751,15.9034364 70.1047907,15.7103064 C69.6538063,15.5171764 69.2525126,15.2497696 68.9008977,14.908078 C68.5492827,14.5663864 68.27411,14.1764182 68.0753711,13.7381616 C67.8766322,13.299905 67.7772642,12.8208011 67.7772642,12.3008357 L67.7772642,0 L70.1162563,0 L70.1162563,12.0779944 C70.1162563,12.6425284 70.2538427,13.0584945 70.5290196,13.3259053 C70.8041966,13.5933161 71.1481625,13.7270195 71.5609279,13.7270195 C71.9736933,13.7270195 72.3176593,13.5933161 72.5928362,13.3259053 C72.8680131,13.0584945 73.0055995,12.6425284 73.0055995,12.0779944 L73.0055995,0 L75.3445916,0 Z M77.836459,15.8662953 L77.836459,0 L80.0837259,0 L83.6151453,9.55988858 L83.6610079,9.55988858 L83.6610079,0 L86,0 L86,15.8662953 L83.7985957,15.8662953 L80.2213137,6.32869081 L80.1754511,6.32869081 L80.1754511,15.8662953 L77.836459,15.8662953 Z" id="YANAPAKUN" fill="#E30027"></path>
                </g>
            </g>
        </g>
    </g>
</svg>