<?xml version="1.0" encoding="UTF-8"?>
<svg width="232px" height="207px" viewBox="0 0 232 207" version="1.1" xmlns="http://www.w3.org/2000/svg" xmlns:xlink="http://www.w3.org/1999/xlink">
    <!-- Generator: Sketch 52.1 (67048) - http://www.bohemiancoding.com/sketch -->
    <title>notification</title>
    <desc>Created with Sketch.</desc>
    <g id="Page-1" stroke="none" stroke-width="1" fill="none" fill-rule="evenodd">
        <g id="iPhone-XS-Max-Copy-4" transform="translate(-90.000000, -186.000000)">
            <g id="notification" transform="translate(90.000000, 186.000000)">
                <path d="M156.000671,163.217161 L197.061583,205.71873 C198.178466,206.923649 199.921935,207.323527 201.456542,206.726352 C202.991149,206.129178 204.00006,204.658261 204.00006,203.018233 L204.00006,163.217161 L216.000792,163.217161 C220.243529,163.218923 224.314574,161.541901 227.314757,158.554267 C230.31671,155.568394 232.001769,151.518528 231.999999,147.294266 L231.999999,15.9228964 C232.001769,11.7003959 230.31671,7.64876915 227.314757,4.66289594 C224.314574,1.67526127 220.243529,-0.00176019065 216.000792,1.38639389e-06 L15.9992079,1.38639389e-06 C11.7564708,-0.00176019065 7.68542633,1.67526127 4.68524315,4.66289594 C1.68329006,7.64876915 -0.00176862647,11.7003959 1.39303826e-06,15.9228964 L1.39303826e-06,147.294266 C-0.00176862647,151.518528 1.68329006,155.568394 4.68524315,158.554267 C7.68542633,161.541901 11.7564708,163.218923 15.9992079,163.217161 L156.000671,163.217161 Z" id="Path" fill="#FFD222"></path>
                <path d="M108,120 L124,120 C126.20885,120 128,121.791283 128,124.000295 L128,139.999705 C128,142.208717 126.20885,144 124,144 L108,144 C105.79115,144 104,142.208717 104,139.999705 L104,124.000295 C104,121.791283 105.79115,120 108,120 Z" id="Path" fill="#35495E"></path>
                <path d="M108,20 L124,20 C126.20885,20 128,21.7912297 128,24.000177 L128,95.999823 C128,98.2087703 126.20885,100 124,100 L108,100 C105.79115,100 104,98.2087703 104,95.999823 L104,24.000177 C104,21.7912297 105.79115,20 108,20 Z" id="Path" fill="#35495E"></path>
                <g id="Group" transform="translate(116.000000, 20.000000)" fill="#2C3E50">
                    <path d="M11.7708333,103.932026 L11.7708333,119.911097 C11.7638889,122.115534 10.0104169,123.899236 7.84722222,123.906307 L0,123.906307 L0,99.9368157 L7.84722222,99.9368157 C10.0104169,99.9421192 11.7638889,101.727589 11.7708333,103.932026 Z" id="Path"></path>
                    <path d="M11.7708333,4.05708269 L11.7708333,75.9673242 C11.7638889,78.1699933 10.0104169,79.9554629 7.84722222,79.9625341 L0,79.9625341 L0,0.0618728321 L7.84722222,0.0618728321 C10.0104169,0.068944 11.7638889,1.85441366 11.7708333,4.05708269 Z" id="Path"></path>
                </g>
            </g>
        </g>
    </g>
</svg>