<?xml version="1.0" encoding="UTF-8"?>
<svg width="138px" height="207px" viewBox="0 0 138 207" version="1.1" xmlns="http://www.w3.org/2000/svg" xmlns:xlink="http://www.w3.org/1999/xlink">
    <!-- Generator: Sketch 52.1 (67048) - http://www.bohemiancoding.com/sketch -->
    <title>Group</title>
    <desc>Created with Sketch.</desc>
    <g id="Page-1" stroke="none" stroke-width="1" fill="none" fill-rule="evenodd">
        <g id="iPhone-XS-Max-Copy-9" transform="translate(-137.000000, -129.000000)">
            <g id="Group" transform="translate(137.000000, 129.000000)">
                <g id="Group-6" transform="translate(24.000000, 0.000000)">
                    <path d="M45,0 C20.1471816,0 0,17.7589193 0,27.7939037 C0,37.8288881 20.1471816,45 45,45 C69.8528184,45 90,37.8288881 90,27.7939037 C90,17.7589193 69.8528184,0 45,0 Z" id="Path" fill="#11502A"></path>
                    <path d="M45.0835146,0 C42.6731381,0 40.3076151,0.169727666 38,0.481472359 C59.4406695,3.38000523 75.8329707,18.7341241 75.8329707,27.7941176 C75.8329707,36.8541112 59.4406695,43.5787906 38,44.800137 C40.3076151,44.9314162 42.6731381,45 45.0835146,45 C69.8902092,45 90,37.8288329 90,27.7937713 C90,17.7587096 69.8902092,0 45.0835146,0 Z" id="Path" fill="#0A4120"></path>
                    <path d="M76.5671353,56.2316267 L74.5204533,56.2316267 L74.5204533,53.7019887 L74.5204533,47.6557598 C74.5204533,39.1185832 71.1900833,30.8459071 65.043019,25.2755682 C60.223758,20.9081439 28.7769103,20.9081439 23.9573151,25.2755682 C17.8102508,30.8459071 14.4798807,39.1185832 14.4798807,47.6557598 L14.4798807,53.7019887 L14.4798807,56.2316267 L12.4331987,56.2316267 C9.43235655,56.2316267 7,58.7918652 7,61.949692 L7,68.2864493 C7,71.4446278 9.43269076,74.0045146 12.4331987,74.0045146 L14.4882359,74.0045146 C14.6576787,82.3032186 17.9710042,90.2909939 23.9573151,95.7157168 C28.7769103,100.083141 35.5512806,103.895185 44.4999999,104 C53.4490534,103.894833 60.2234238,100.082789 65.0426848,95.7157168 C71.0289957,90.2909939 74.3426553,82.3032186 74.511764,74.0045146 L76.5668011,74.0045146 C79.5676433,74.0045146 81.9999999,71.4442761 81.9999999,68.2864493 L81.9999999,61.949692 C82.0006683,58.7918652 79.5679775,56.2316267 76.5671353,56.2316267 Z" id="Path" fill="#E4B28E"></path>
                    <path d="M76.6195598,56.2314088 L74.5927519,56.2314088 L74.5927519,53.7017592 L74.5927519,47.6551511 C74.5927519,39.1179355 71.2947212,30.8452217 65.2073473,25.2748574 C62.2028794,22.5253759 48.7479729,21.5074663 38,22.2200734 C44.3240113,22.6393368 49.7114016,23.6572464 51.4793977,25.2748574 C57.5667715,30.8452217 86.1337891,9.10253906 70.2832031,47.3994141 C54.4326172,85.6962891 22.7975206,94.2600959 22.6259766,94.3928223 C32.5136719,104.312744 42.4127089,103.970806 44.8641403,104 C53.7262949,103.894832 60.4348833,100.082772 65.2073473,95.7153273 C71.1355287,90.2905796 74.4170114,82.302768 74.5844779,74.004026 L76.6195598,74.004026 C79.5912626,74.004026 82,71.4437759 82,68.2859347 L82,61.9491484 C82.000331,58.791659 79.5912626,56.2314088 76.6195598,56.2314088 Z" id="Path" fill="#DCA984"></path>
                    <path d="M11,37.1189033 L11,56.7493934 C11,56.7493934 15.5159794,56.6403215 18.4178412,59.7048566 C19.0222725,60.3431553 20.0493784,59.8767062 20.0493784,58.9694102 L20.0493784,44.4319825 L69.9506216,44.4319825 L69.9506216,58.9694102 C69.9506216,59.8767062 70.9777275,60.3431553 71.5821588,59.7048566 C74.4840206,56.6403215 79,56.7493934 79,56.7493934 L79,37.1189033 C79,24.9603656 11,24.9603656 11,37.1189033 Z" id="Path" fill="#383635"></path>
                    <path d="M45.5,53 C26.4460588,53 11,46.7320238 11,39 L80,39 C80,46.7320238 64.5539412,53 45.5,53 Z" id="Path" fill="#11502A"></path>
                    <path d="M11,29.2354434 L11,39 L80,39 L80,29.3377161 C80,26.7169782 78.3324633,24.4318227 75.9475523,23.7830303 C69.5628879,22.0458149 56.5781132,19.005688 43.8851575,19.0000062 C32.1873876,18.9950346 20.7367467,21.9779882 14.9283829,23.7159138 C12.6045038,24.4115812 11,26.6654868 11,29.2354434 Z" id="Path" fill="#0A4120"></path>
                    <path d="M12,32.2995201 C33.2875106,26.5668266 55.2875106,26.5668266 78,32.2995201 C78,32.2995201 78,33.8663467 78,37 C55.4173776,34.4009598 33.4173776,34.4009598 12,37 C12,37 12,35.4331734 12,32.2995201 Z" id="Path-5" fill="#D19A05"></path>
                    <circle id="Oval" fill="#FFBF14" cx="9.5" cy="35.5" r="2.5"></circle>
                    <circle id="Oval-Copy-3" fill="#AD8415" cx="80.5" cy="35.5" r="2.5"></circle>
                    <path d="" id="Path-4" stroke="#979797"></path>
                </g>
                <g id="Group-4-Copy" transform="translate(12.000000, 121.000000)" fill="#216D3F">
                    <path d="M4.2,21.36 L4.2,12.33 L0,0 L3.24,0 L5.7,8.49 L5.76,8.49 L8.22,0 L11.46,0 L7.26,12.33 L7.26,21.36 L4.2,21.36 Z M18.02,13.89 L16.52,6.15 L16.46,6.15 L14.96,13.89 L18.02,13.89 Z M10.46,21.36 L15.23,0 L17.78,0 L22.55,21.36 L19.49,21.36 L18.59,16.77 L14.42,16.77 L13.52,21.36 L10.46,21.36 Z M24.43,21.36 L24.43,0 L27.37,0 L31.99,12.87 L32.05,12.87 L32.05,0 L35.11,0 L35.11,21.36 L32.23,21.36 L27.55,8.52 L27.49,8.52 L27.49,21.36 L24.43,21.36 Z M44.55,13.89 L43.05,6.15 L42.99,6.15 L41.49,13.89 L44.55,13.89 Z M36.99,21.36 L41.76,0 L44.31,0 L49.08,21.36 L46.02,21.36 L45.12,16.77 L40.95,16.77 L40.05,21.36 L36.99,21.36 Z M51.08,21.36 L51.08,0 L55.67,0 C56.5100042,0 57.2499968,0.1099989 57.89,0.33 C58.5300032,0.5500011 59.1099974,0.9399972 59.63,1.5 C60.1500026,2.0600028 60.509999,2.71499625 60.71,3.465 C60.910001,4.21500375 61.01,5.2299936 61.01,6.51 C61.01,7.4700048 60.9550005,8.2799967 60.845,8.94 C60.7349994,9.6000033 60.5000018,10.2199971 60.14,10.8 C59.7199979,11.5000035 59.1600035,12.0449981 58.46,12.435 C57.7599965,12.8250019 56.8400057,13.02 55.7,13.02 L54.14,13.02 L54.14,21.36 L51.08,21.36 Z M54.14,2.88 L54.14,10.14 L55.61,10.14 C56.2300031,10.14 56.7099983,10.0500009 57.05,9.87 C57.3900017,9.6899991 57.6399992,9.4400016 57.8,9.12 C57.9600008,8.8199985 58.0549999,8.4500022 58.085,8.01 C58.1150002,7.5699978 58.13,7.0800027 58.13,6.54 C58.13,6.0399975 58.1200001,5.56500225 58.1,5.115 C58.0799999,4.66499775 57.9900008,4.2700017 57.83,3.93 C57.6699992,3.5899983 57.4300016,3.3300009 57.11,3.15 C56.7899984,2.9699991 56.330003,2.88 55.73,2.88 L54.14,2.88 Z M68.86,13.89 L67.36,6.15 L67.3,6.15 L65.8,13.89 L68.86,13.89 Z M61.3,21.36 L66.07,0 L68.62,0 L73.39,21.36 L70.33,21.36 L69.43,16.77 L65.26,16.77 L64.36,21.36 L61.3,21.36 Z M75.39,21.36 L75.39,0 L78.45,0 L78.45,9.75 L78.51,9.75 L82.98,0 L86.04,0 L81.87,8.55 L86.82,21.36 L83.58,21.36 L80.1,11.88 L78.45,14.97 L78.45,21.36 L75.39,21.36 Z M98.57,0 L98.57,16.56 C98.57,17.2600035 98.4450012,17.9049971 98.195,18.495 C97.9449987,19.0850029 97.5900023,19.6099977 97.13,20.07 C96.6699977,20.5300023 96.140003,20.8899987 95.54,21.15 C94.939997,21.4100013 94.3000034,21.54 93.62,21.54 C92.9399966,21.54 92.305003,21.4100013 91.715,21.15 C91.124997,20.8899987 90.6000023,20.5300023 90.14,20.07 C89.6799977,19.6099977 89.3200013,19.0850029 89.06,18.495 C88.7999987,17.9049971 88.67,17.2600035 88.67,16.56 L88.67,0 L91.73,0 L91.73,16.26 C91.73,17.0200038 91.9099982,17.5799982 92.27,17.94 C92.6300018,18.3000018 93.0799973,18.48 93.62,18.48 C94.1600027,18.48 94.6099982,18.3000018 94.97,17.94 C95.3300018,17.5799982 95.51,17.0200038 95.51,16.26 L95.51,0 L98.57,0 Z M101.83,21.36 L101.83,0 L104.77,0 L109.39,12.87 L109.45,12.87 L109.45,0 L112.51,0 L112.51,21.36 L109.63,21.36 L104.95,8.52 L104.89,8.52 L104.89,21.36 L101.83,21.36 Z" id="YANAPAKUN"></path>
                </g>
                <path d="M32,174.55 L32,153.19 L36.59,153.19 C37.4300042,153.19 38.1699968,153.299999 38.81,153.52 C39.4500032,153.740001 40.0299974,154.129997 40.55,154.69 C41.0700026,155.250003 41.429999,155.904996 41.63,156.655 C41.830001,157.405004 41.93,158.419994 41.93,159.7 C41.93,160.660005 41.8750006,161.469997 41.765,162.13 C41.6549994,162.790003 41.4200018,163.409997 41.06,163.99 C40.6399979,164.690003 40.0800035,165.234998 39.38,165.625 C38.6799965,166.015002 37.7600057,166.21 36.62,166.21 L35.06,166.21 L35.06,174.55 L32,174.55 Z M35.06,156.07 L35.06,163.33 L36.53,163.33 C37.1500031,163.33 37.6299983,163.240001 37.97,163.06 C38.3100017,162.879999 38.5599992,162.630002 38.72,162.31 C38.8800008,162.009998 38.9749999,161.640002 39.005,161.2 C39.0350002,160.759998 39.05,160.270003 39.05,159.73 C39.05,159.229998 39.0400001,158.755002 39.02,158.305 C38.9999999,157.854998 38.9100008,157.460002 38.75,157.12 C38.5899992,156.779998 38.3500016,156.520001 38.03,156.34 C37.7099984,156.159999 37.250003,156.07 36.65,156.07 L35.06,156.07 Z M44.43,158.23 C44.43,157.369996 44.5799985,156.610003 44.88,155.95 C45.1800015,155.289997 45.5799975,154.740002 46.08,154.3 C46.5600024,153.879998 47.104997,153.560001 47.715,153.34 C48.3250031,153.119999 48.9399969,153.01 49.56,153.01 C50.1800031,153.01 50.794997,153.119999 51.405,153.34 C52.0150031,153.560001 52.5699975,153.879998 53.07,154.3 C53.5500024,154.740002 53.9399985,155.289997 54.24,155.95 C54.5400015,156.610003 54.69,157.369996 54.69,158.23 L54.69,169.51 C54.69,170.410005 54.5400015,171.179997 54.24,171.82 C53.9399985,172.460003 53.5500024,172.989998 53.07,173.41 C52.5699975,173.850002 52.0150031,174.179999 51.405,174.4 C50.794997,174.620001 50.1800031,174.73 49.56,174.73 C48.9399969,174.73 48.3250031,174.620001 47.715,174.4 C47.104997,174.179999 46.5600024,173.850002 46.08,173.41 C45.5799975,172.989998 45.1800015,172.460003 44.88,171.82 C44.5799985,171.179997 44.43,170.410005 44.43,169.51 L44.43,158.23 Z M47.49,169.51 C47.49,170.250004 47.694998,170.794998 48.105,171.145 C48.5150021,171.495002 48.9999972,171.67 49.56,171.67 C50.1200028,171.67 50.604998,171.495002 51.015,171.145 C51.4250021,170.794998 51.63,170.250004 51.63,169.51 L51.63,158.23 C51.63,157.489996 51.4250021,156.945002 51.015,156.595 C50.604998,156.244998 50.1200028,156.07 49.56,156.07 C48.9999972,156.07 48.5150021,156.244998 48.105,156.595 C47.694998,156.945002 47.49,157.489996 47.49,158.23 L47.49,169.51 Z M57.79,174.55 L57.79,153.19 L60.85,153.19 L60.85,171.49 L66.91,171.49 L66.91,174.55 L57.79,174.55 Z M69.38,174.55 L69.38,153.19 L72.44,153.19 L72.44,174.55 L69.38,174.55 Z M85.53,168.46 L85.53,169.78 C85.53,170.440003 85.4050013,171.064997 85.155,171.655 C84.9049988,172.245003 84.5600022,172.769998 84.12,173.23 C83.6799978,173.690002 83.165003,174.054999 82.575,174.325 C81.9849971,174.595001 81.3500034,174.73 80.67,174.73 C80.0899971,174.73 79.500003,174.650001 78.9,174.49 C78.299997,174.329999 77.7600024,174.050002 77.28,173.65 C76.7999976,173.249998 76.4050016,172.735003 76.095,172.105 C75.7849985,171.474997 75.63,170.670005 75.63,169.69 L75.63,157.93 C75.63,157.229997 75.7499988,156.580003 75.99,155.98 C76.2300012,155.379997 76.5699978,154.860002 77.01,154.42 C77.4500022,153.979998 77.974997,153.635001 78.585,153.385 C79.1950031,153.134999 79.8699963,153.01 80.61,153.01 C82.0500072,153.01 83.2199955,153.479995 84.12,154.42 C84.5600022,154.880002 84.9049988,155.424997 85.155,156.055 C85.4050013,156.685003 85.53,157.369996 85.53,158.11 L85.53,159.31 L82.47,159.31 L82.47,158.29 C82.47,157.689997 82.3000017,157.170002 81.96,156.73 C81.6199983,156.289998 81.1600029,156.07 80.58,156.07 C79.8199962,156.07 79.3150013,156.304998 79.065,156.775 C78.8149988,157.245002 78.69,157.839996 78.69,158.56 L78.69,169.48 C78.69,170.100003 78.8249987,170.619998 79.095,171.04 C79.3650014,171.460002 79.8499965,171.67 80.55,171.67 C80.750001,171.67 80.9649989,171.635 81.195,171.565 C81.4250012,171.495 81.639999,171.380001 81.84,171.22 C82.0200009,171.059999 82.1699994,170.840001 82.29,170.56 C82.4100006,170.279999 82.47,169.930002 82.47,169.51 L82.47,168.46 L85.53,168.46 Z M88.51,174.55 L88.51,153.19 L91.57,153.19 L91.57,174.55 L88.51,174.55 Z M89.09,152.23 L91.79,148 L95.03,148 L91.07,152.23 L89.09,152.23 Z M101.12,167.08 L99.62,159.34 L99.56,159.34 L98.06,167.08 L101.12,167.08 Z M93.56,174.55 L98.33,153.19 L100.88,153.19 L105.65,174.55 L102.59,174.55 L101.69,169.96 L97.52,169.96 L96.62,174.55 L93.56,174.55 Z" id="POLICÃA" fill="#3A413D"></path>
                <path d="M0,206.54 L0,185.18 L3.06,185.18 L3.06,194.33 L6.84,194.33 L6.84,185.18 L9.9,185.18 L9.9,206.54 L6.84,206.54 L6.84,197.03 L3.06,197.03 L3.06,206.54 L0,206.54 Z M22.68,185.18 L22.68,201.74 C22.68,202.440004 22.5550013,203.084997 22.305,203.675 C22.0549988,204.265003 21.7000023,204.789998 21.24,205.25 C20.7799977,205.710002 20.250003,206.069999 19.65,206.33 C19.049997,206.590001 18.4100034,206.72 17.73,206.72 C17.0499966,206.72 16.415003,206.590001 15.825,206.33 C15.2349971,206.069999 14.7100023,205.710002 14.25,205.25 C13.7899977,204.789998 13.4300013,204.265003 13.17,203.675 C12.9099987,203.084997 12.78,202.440004 12.78,201.74 L12.78,185.18 L15.84,185.18 L15.84,201.44 C15.84,202.200004 16.0199982,202.759998 16.38,203.12 C16.7400018,203.480002 17.1899973,203.66 17.73,203.66 C18.2700027,203.66 18.7199982,203.480002 19.08,203.12 C19.4400018,202.759998 19.62,202.200004 19.62,201.44 L19.62,185.18 L22.68,185.18 Z M31.38,199.07 L29.88,191.33 L29.82,191.33 L28.32,199.07 L31.38,199.07 Z M23.82,206.54 L28.59,185.18 L31.14,185.18 L35.91,206.54 L32.85,206.54 L31.95,201.95 L27.78,201.95 L26.88,206.54 L23.82,206.54 Z M37.29,206.54 L37.29,185.18 L40.23,185.18 L44.85,198.05 L44.91,198.05 L44.91,185.18 L47.97,185.18 L47.97,206.54 L45.09,206.54 L40.41,193.7 L40.35,193.7 L40.35,206.54 L37.29,206.54 Z M60.45,200.45 L60.45,201.77 C60.45,202.430003 60.3250013,203.054997 60.075,203.645 C59.8249988,204.235003 59.4800022,204.759998 59.04,205.22 C58.5999978,205.680002 58.0850029,206.044999 57.495,206.315 C56.9049971,206.585001 56.2700034,206.72 55.59,206.72 C55.0099971,206.72 54.420003,206.640001 53.82,206.48 C53.219997,206.319999 52.6800024,206.040002 52.2,205.64 C51.7199976,205.239998 51.3250015,204.725003 51.015,204.095 C50.7049985,203.464997 50.55,202.660005 50.55,201.68 L50.55,189.92 C50.55,189.219997 50.6699988,188.570003 50.91,187.97 C51.1500012,187.369997 51.4899978,186.850002 51.93,186.41 C52.3700022,185.969998 52.894997,185.625001 53.505,185.375 C54.115003,185.124999 54.7899963,185 55.53,185 C56.9700072,185 58.1399955,185.469995 59.04,186.41 C59.4800022,186.870002 59.8249988,187.414997 60.075,188.045 C60.3250013,188.675003 60.45,189.359996 60.45,190.1 L60.45,191.3 L57.39,191.3 L57.39,190.28 C57.39,189.679997 57.2200017,189.160002 56.88,188.72 C56.5399983,188.279998 56.0800029,188.06 55.5,188.06 C54.7399962,188.06 54.2350012,188.294998 53.985,188.765 C53.7349987,189.235002 53.61,189.829996 53.61,190.55 L53.61,201.47 C53.61,202.090003 53.7449987,202.609998 54.015,203.03 C54.2850014,203.450002 54.7699965,203.66 55.47,203.66 C55.670001,203.66 55.8849988,203.625 56.115,203.555 C56.3450011,203.485 56.559999,203.370001 56.76,203.21 C56.9400009,203.049999 57.0899994,202.830001 57.21,202.55 C57.3300006,202.269999 57.39,201.920002 57.39,201.5 L57.39,200.45 L60.45,200.45 Z M69.12,199.07 L67.62,191.33 L67.56,191.33 L66.06,199.07 L69.12,199.07 Z M61.56,206.54 L66.33,185.18 L68.88,185.18 L73.65,206.54 L70.59,206.54 L69.69,201.95 L65.52,201.95 L64.62,206.54 L61.56,206.54 Z M84.42,185.18 L80.04,206.54 L77.34,206.54 L72.99,185.18 L76.23,185.18 L78.66,200.09 L78.72,200.09 L81.18,185.18 L84.42,185.18 Z M86.25,206.54 L86.25,185.18 L95.37,185.18 L95.37,188.06 L89.31,188.06 L89.31,194.33 L94.59,194.33 L94.59,197.21 L89.31,197.21 L89.31,203.48 L95.37,203.48 L95.37,206.54 L86.25,206.54 Z M97.35,206.54 L97.35,185.18 L100.41,185.18 L100.41,203.48 L106.47,203.48 L106.47,206.54 L97.35,206.54 Z M108.54,206.54 L108.54,185.18 L111.6,185.18 L111.6,206.54 L108.54,206.54 Z M124.29,200.45 L124.29,201.77 C124.29,202.430003 124.165001,203.054997 123.915,203.645 C123.664999,204.235003 123.320002,204.759998 122.88,205.22 C122.439998,205.680002 121.925003,206.044999 121.335,206.315 C120.744997,206.585001 120.110003,206.72 119.43,206.72 C118.849997,206.72 118.260003,206.640001 117.66,206.48 C117.059997,206.319999 116.520002,206.040002 116.04,205.64 C115.559998,205.239998 115.165002,204.725003 114.855,204.095 C114.544998,203.464997 114.39,202.660005 114.39,201.68 L114.39,189.92 C114.39,189.219997 114.509999,188.570003 114.75,187.97 C114.990001,187.369997 115.329998,186.850002 115.77,186.41 C116.210002,185.969998 116.734997,185.625001 117.345,185.375 C117.955003,185.124999 118.629996,185 119.37,185 C120.810007,185 121.979995,185.469995 122.88,186.41 C123.320002,186.870002 123.664999,187.414997 123.915,188.045 C124.165001,188.675003 124.29,189.359996 124.29,190.1 L124.29,191.3 L121.23,191.3 L121.23,190.28 C121.23,189.679997 121.060002,189.160002 120.72,188.72 C120.379998,188.279998 119.920003,188.06 119.34,188.06 C118.579996,188.06 118.075001,188.294998 117.825,188.765 C117.574999,189.235002 117.45,189.829996 117.45,190.55 L117.45,201.47 C117.45,202.090003 117.584999,202.609998 117.855,203.03 C118.125001,203.450002 118.609996,203.66 119.31,203.66 C119.510001,203.66 119.724999,203.625 119.955,203.555 C120.185001,203.485 120.399999,203.370001 120.6,203.21 C120.780001,203.049999 120.929999,202.830001 121.05,202.55 C121.170001,202.269999 121.23,201.920002 121.23,201.5 L121.23,200.45 L124.29,200.45 Z M132.96,199.07 L131.46,191.33 L131.4,191.33 L129.9,199.07 L132.96,199.07 Z M125.4,206.54 L130.17,185.18 L132.72,185.18 L137.49,206.54 L134.43,206.54 L133.53,201.95 L129.36,201.95 L128.46,206.54 L125.4,206.54 Z" id="HUANCAVELICA" fill="#3A413D"></path>
            </g>
        </g>
    </g>
</svg>