<?xml version="1.0" encoding="UTF-8"?>
<svg width="147px" height="35px" viewBox="0 0 147 35" version="1.1" xmlns="http://www.w3.org/2000/svg" xmlns:xlink="http://www.w3.org/1999/xlink">
    <!-- Generator: Sketch 52.1 (67048) - http://www.bohemiancoding.com/sketch -->
    <title>Group 2</title>
    <desc>Created with Sketch.</desc>
    <g id="Page-1" stroke="none" stroke-width="1" fill="none" fill-rule="evenodd">
        <g id="iPhone-XS-Max-Copy-21" transform="translate(-22.000000, -29.000000)">
            <g id="Group-2" transform="translate(22.000000, 29.000000)">
                <g id="Group-6-Copy" transform="translate(0.000000, 1.000000)">
                    <path d="M14.5,0 C6.49186962,0 0,5.72231844 0,8.95581342 C0,12.1893084 6.49186962,14.5 14.5,14.5 C22.5081304,14.5 29,12.1893084 29,8.95581342 C29,5.72231844 22.5081304,0 14.5,0 Z" id="Path" fill="#11502A"></path>
                    <path d="M14.5269103,0 C13.7502334,0 12.9880093,0.0546900257 12.2444444,0.155141093 C19.1531046,1.0891128 24.4350683,6.0365511 24.4350683,8.95588235 C24.4350683,11.8752136 19.1531046,14.0420547 12.2444444,14.4355997 C12.9880093,14.4779008 13.7502334,14.5 14.5269103,14.5 C22.5201785,14.5 29,12.1892906 29,8.95577074 C29,5.72225087 22.5201785,0 14.5269103,0 Z" id="Path" fill="#0A4120"></path>
                    <path d="M24.6716325,18.1190797 L24.0121461,18.1190797 L24.0121461,17.3039741 L24.0121461,15.3557448 C24.0121461,12.6048768 22.9390268,9.93923674 20.9583061,8.14434976 C19.4054331,6.7370686 9.27255998,6.7370686 7.71957931,8.14434976 C5.73885858,9.93923674 4.66573935,12.6048768 4.66573935,15.3557448 L4.66573935,17.3039741 L4.66573935,18.1190797 L4.00625293,18.1190797 C3.03931489,18.1190797 2.25555556,18.9440454 2.25555556,19.9615674 L2.25555556,22.0034114 C2.25555556,23.0210467 3.03942258,23.8458991 4.00625293,23.8458991 L4.66843157,23.8458991 C4.72302981,26.519926 5.79065691,29.0937647 7.71957931,30.841731 C9.27255998,32.2490121 11.4554126,33.4773373 14.3388889,33.5111111 C17.2224728,33.4772239 19.4053254,32.2488988 20.9581984,30.841731 C22.8871208,29.0937647 23.9548556,26.519926 24.0093462,23.8458991 L24.6715248,23.8458991 C25.6384628,23.8458991 26.4222222,23.0209334 26.4222222,22.0034114 L26.4222222,19.9615674 C26.4224376,18.9440454 25.6385705,18.1190797 24.6716325,18.1190797 Z" id="Path" fill="#E7BC9D"></path>
                    <path d="M24.6885248,18.1190095 L24.0354423,18.1190095 L24.0354423,17.3039002 L24.0354423,15.3555487 C24.0354423,12.6046681 22.9727435,9.93901589 21.0112564,8.14412072 C20.04315,7.25817669 15.7076801,6.9301836 12.2444444,7.15980143 C14.2821814,7.29489741 16.0181183,7.6228905 16.5878059,8.14412072 C18.549293,9.93901589 19.6119918,12.6046681 19.6119918,15.3555487 L19.6119918,17.3039002 L19.6094324,23.8457417 C19.5553643,26.5197808 18.4981043,29.0936312 16.5879126,30.8416055 C15.475518,31.8595854 14.036369,32.7836102 12.2445511,33.2299256 C12.9297332,33.4006089 13.6663173,33.5017043 14.456223,33.5111111 C17.3118061,33.4772238 19.4734624,32.248893 21.0112564,30.8416055 C22.9214481,29.0936312 23.9788148,26.5197808 24.0327762,23.8457417 L24.6885248,23.8457417 C25.6460735,23.8457417 26.4222222,23.0207722 26.4222222,22.0032456 L26.4222222,19.9613923 C26.4223289,18.943979 25.6460735,18.1190095 24.6885248,18.1190095 Z" id="Path" fill="#D79A81"></path>
                    <path d="M3.54444444,11.9605355 L3.54444444,18.2859157 C3.54444444,18.2859157 5.0209926,18.2507703 5.96978762,19.2382316 C6.16741295,19.4439056 6.50323631,19.2936053 6.50323631,19.0012544 L6.50323631,14.3169721 L22.8189859,14.3169721 L22.8189859,19.0012544 C22.8189859,19.2936053 23.1548093,19.4439056 23.3524346,19.2382316 C24.3012296,18.2507703 25.7777778,18.2859157 25.7777778,18.2859157 L25.7777778,11.9605355 C25.7777778,8.04278446 3.54444444,8.04278446 3.54444444,11.9605355 Z" id="Path" fill="#383635"></path>
                    <path d="M14.6611111,17.0777778 C8.52150784,17.0777778 3.54444444,15.0580966 3.54444444,12.5666667 L25.7777778,12.5666667 C25.7777778,15.0580966 20.8007144,17.0777778 14.6611111,17.0777778 Z" id="Path" fill="#11502A"></path>
                    <path d="M3.54444444,9.42030953 L3.54444444,12.5666667 L25.7777778,12.5666667 L25.7777778,9.45326407 C25.7777778,8.6088041 25.2404604,7.8724762 24.4719891,7.66342087 C22.4147083,7.10365147 18.2307254,6.12405503 14.140773,6.12222422 C10.3714916,6.12062227 6.68184061,7.08179621 4.81025672,7.64179446 C4.06145122,7.86595395 3.54444444,8.59221241 3.54444444,9.42030953 Z" id="Path" fill="#0A4120"></path>
                    <path d="M3.86666667,10.4076231 C10.7259756,8.56042191 17.8148645,8.56042191 25.1333333,10.4076231 C25.1333333,10.4076231 25.1333333,10.9124895 25.1333333,11.9222222 C17.8567106,11.0847537 10.7678217,11.0847537 3.86666667,11.9222222 C3.86666667,11.9222222 3.86666667,11.4173559 3.86666667,10.4076231 Z" id="Path-5" fill="#D19A05"></path>
                    <circle id="Oval" fill="#FFBF14" cx="3.06111111" cy="11.4388889" r="1"></circle>
                    <circle id="Oval-Copy-3" fill="#AD8415" cx="25.9388889" cy="11.4388889" r="1"></circle>
                    <path d="" id="Path-4" stroke="#979797"></path>
                </g>
                <g id="Group" transform="translate(38.000000, 0.000000)">
                    <path d="M1,34.4823098 L1,22.113844 L2.77278907,22.113844 L2.77278907,27.4121334 L4.96270498,27.4121334 L4.96270498,22.113844 L6.73549405,22.113844 L6.73549405,34.4823098 L4.96270498,34.4823098 L4.96270498,28.9755631 L2.77278907,28.9755631 L2.77278907,34.4823098 L1,34.4823098 Z M14.1394955,22.113844 L14.1394955,31.7028793 C14.1394955,32.1082149 14.0670783,32.4816972 13.9222419,32.8233372 C13.7774055,33.1649773 13.5717408,33.4689744 13.3052418,33.7353379 C13.0387427,34.0017013 12.7316941,34.2101565 12.3840867,34.3607097 C12.0364792,34.511263 11.6657035,34.5865385 11.2717484,34.5865385 C10.8777933,34.5865385 10.5099143,34.511263 10.1681003,34.3607097 C9.82628636,34.2101565 9.52213441,34.0017013 9.25563537,33.7353379 C8.98913634,33.4689744 8.780575,33.1649773 8.62994511,32.8233372 C8.47931523,32.4816972 8.40400141,32.1082149 8.40400141,31.7028793 L8.40400141,22.113844 L10.1767905,22.113844 L10.1767905,31.5291649 C10.1767905,31.9692436 10.2810711,32.2935072 10.4896356,32.5019656 C10.6982001,32.7104239 10.9589017,32.8146515 11.2717484,32.8146515 C11.5845951,32.8146515 11.8452968,32.7104239 12.0538613,32.5019656 C12.2624257,32.2935072 12.3667064,31.9692436 12.3667064,31.5291649 L12.3667064,22.113844 L14.1394955,22.113844 Z M19.1797781,30.1568211 L18.3107639,25.6749894 L18.2760033,25.6749894 L17.406989,30.1568211 L19.1797781,30.1568211 Z M14.7999463,34.4823098 L17.5634116,22.113844 L19.0407358,22.113844 L21.8042011,34.4823098 L20.0314121,34.4823098 L19.5100035,31.8244794 L17.0941439,31.8244794 L16.5727354,34.4823098 L14.7999463,34.4823098 Z M22.6036943,34.4823098 L22.6036943,22.113844 L24.3069622,22.113844 L26.9835261,29.5661921 L27.0182866,29.5661921 L27.0182866,22.113844 L28.7910757,22.113844 L28.7910757,34.4823098 L27.1225684,34.4823098 L24.4112439,27.0473332 L24.3764833,27.0473332 L24.3764833,34.4823098 L22.6036943,34.4823098 Z M36.0212743,30.9559074 L36.0212743,31.7202507 C36.0212743,32.1024244 35.9488571,32.4643257 35.8040207,32.8059658 C35.6591843,33.1476058 35.459313,33.451603 35.2044009,33.7179664 C34.9494888,33.9843298 34.6511302,34.1956803 34.3093162,34.352024 C33.9675022,34.5083678 33.5996232,34.5865385 33.2056681,34.5865385 C32.8696476,34.5865385 32.5278387,34.5402151 32.1802313,34.4475669 C31.8326239,34.3549188 31.5197818,34.192787 31.2416959,33.9611666 C30.9636099,33.7295462 30.7347718,33.4313395 30.5551746,33.0665374 C30.3755775,32.7017353 30.2857802,32.2356063 30.2857802,31.6681364 L30.2857802,24.8585317 C30.2857802,24.453196 30.3553007,24.0768186 30.4943436,23.729388 C30.6333866,23.3819575 30.8303612,23.0808555 31.0852733,22.8260731 C31.3401855,22.5712907 31.6443374,22.3715211 31.9977383,22.2267584 C32.3511392,22.0819957 32.7421917,22.0096154 33.1709075,22.0096154 C34.0051654,22.0096154 34.6829897,22.2817652 35.2044009,22.8260731 C35.459313,23.0924365 35.6591843,23.4080145 35.8040207,23.7728166 C35.9488571,24.1376187 36.0212743,24.5342626 36.0212743,24.9627603 L36.0212743,25.6576179 L34.2484852,25.6576179 L34.2484852,25.066989 C34.2484852,24.7195584 34.1499979,24.4184564 33.9530204,24.163674 C33.7560428,23.9088916 33.4895478,23.7815023 33.1535272,23.7815023 C32.7132245,23.7815023 32.4206593,23.9175773 32.2758229,24.1897312 C32.1309864,24.4618851 32.0585693,24.8064153 32.0585693,25.2233319 L32.0585693,31.5465363 C32.0585693,31.9055479 32.1367798,32.2066499 32.2932031,32.4498513 C32.4496265,32.6930526 32.730605,32.8146515 33.136147,32.8146515 C33.2520161,32.8146515 33.3765736,32.794385 33.5098231,32.7538515 C33.6430726,32.7133179 33.7676301,32.646728 33.8834992,32.5540799 C33.9877815,32.4614318 34.074682,32.3340425 34.1442035,32.1719082 C34.213725,32.0097739 34.2484852,31.8071092 34.2484852,31.5639078 L34.2484852,30.9559074 L36.0212743,30.9559074 Z M41.0441766,30.1568211 L40.1751624,25.6749894 L40.1404018,25.6749894 L39.2713876,30.1568211 L41.0441766,30.1568211 Z M36.6643448,34.4823098 L39.4278101,22.113844 L40.9051344,22.113844 L43.6685997,34.4823098 L41.8958106,34.4823098 L41.3744021,31.8244794 L38.9585424,31.8244794 L38.4371339,34.4823098 L36.6643448,34.4823098 Z M49.908122,22.113844 L47.3706004,34.4823098 L45.8063747,34.4823098 L43.2862334,22.113844 L45.1633042,22.113844 L46.5711073,30.7474501 L46.6058678,30.7474501 L48.0310512,22.113844 L49.908122,22.113844 Z M50.9683194,34.4823098 L50.9683194,22.113844 L56.251926,22.113844 L56.251926,23.7815023 L52.7411084,23.7815023 L52.7411084,27.4121334 L55.8000386,27.4121334 L55.8000386,29.0797918 L52.7411084,29.0797918 L52.7411084,32.7104229 L56.251926,32.7104229 L56.251926,34.4823098 L50.9683194,34.4823098 Z M57.3990248,34.4823098 L57.3990248,22.113844 L59.1718139,22.113844 L59.1718139,32.7104229 L62.6826315,32.7104229 L62.6826315,34.4823098 L57.3990248,34.4823098 Z M63.8818711,34.4823098 L63.8818711,22.113844 L65.6546602,22.113844 L65.6546602,34.4823098 L63.8818711,34.4823098 Z M73.0065208,30.9559074 L73.0065208,31.7202507 C73.0065208,32.1024244 72.9341036,32.4643257 72.7892672,32.8059658 C72.6444308,33.1476058 72.4445595,33.451603 72.1896474,33.7179664 C71.9347352,33.9843298 71.6363767,34.1956803 71.2945627,34.352024 C70.9527487,34.5083678 70.5848697,34.5865385 70.1909146,34.5865385 C69.8548941,34.5865385 69.5130852,34.5402151 69.1654778,34.4475669 C68.8178703,34.3549188 68.5050283,34.192787 68.2269424,33.9611666 C67.9488564,33.7295462 67.7200183,33.4313395 67.5404211,33.0665374 C67.3608239,32.7017353 67.2710267,32.2356063 67.2710267,31.6681364 L67.2710267,24.8585317 C67.2710267,24.453196 67.3405471,24.0768186 67.4795901,23.729388 C67.6186331,23.3819575 67.8156077,23.0808555 68.0705198,22.8260731 C68.3254319,22.5712907 68.6295839,22.3715211 68.9829848,22.2267584 C69.3363857,22.0819957 69.7274382,22.0096154 70.156154,22.0096154 C70.9904119,22.0096154 71.6682362,22.2817652 72.1896474,22.8260731 C72.4445595,23.0924365 72.6444308,23.4080145 72.7892672,23.7728166 C72.9341036,24.1376187 73.0065208,24.5342626 73.0065208,24.9627603 L73.0065208,25.6576179 L71.2337317,25.6576179 L71.2337317,25.066989 C71.2337317,24.7195584 71.1352444,24.4184564 70.9382668,24.163674 C70.7412893,23.9088916 70.4747943,23.7815023 70.1387737,23.7815023 C69.698471,23.7815023 69.4059058,23.9175773 69.2610693,24.1897312 C69.1162329,24.4618851 69.0438158,24.8064153 69.0438158,25.2233319 L69.0438158,31.5465363 C69.0438158,31.9055479 69.1220263,32.2066499 69.2784496,32.4498513 C69.434873,32.6930526 69.7158514,32.8146515 70.1213934,32.8146515 C70.2372626,32.8146515 70.3618201,32.794385 70.4950696,32.7538515 C70.6283191,32.7133179 70.7528766,32.646728 70.8687457,32.5540799 C70.9730279,32.4614318 71.0599285,32.3340425 71.12945,32.1719082 C71.1989715,32.0097739 71.2337317,31.8071092 71.2337317,31.5639078 L71.2337317,30.9559074 L73.0065208,30.9559074 Z M78.0294231,30.1568211 L77.1604089,25.6749894 L77.1256483,25.6749894 L76.256634,30.1568211 L78.0294231,30.1568211 Z M73.6495913,34.4823098 L76.4130566,22.113844 L77.8903808,22.113844 L80.6538462,34.4823098 L78.8810571,34.4823098 L78.3596485,31.8244794 L75.9437889,31.8244794 L75.4223804,34.4823098 L73.6495913,34.4823098 Z" id="POLICÍA-HUANCAVELICA" fill="#3A413D"></path>
                    <path d="M2.43401884,15.6160542 L2.43401884,10.3435558 L0,3.14423077 L1.87767168,3.14423077 L3.30331129,8.10143025 L3.33808298,8.10143025 L4.76372259,3.14423077 L6.64139427,3.14423077 L4.20737543,10.3435558 L4.20737543,15.6160542 L2.43401884,15.6160542 Z M10.1533357,11.2544193 L9.2840433,6.73513499 L9.2492716,6.73513499 L8.37997916,11.2544193 L10.1533357,11.2544193 Z M5.77210183,15.6160542 L8.5364518,3.14423077 L10.014249,3.14423077 L12.7785989,15.6160542 L11.0052423,15.6160542 L10.4836669,12.9360135 L8.06703388,12.9360135 L7.54545841,15.6160542 L5.77210183,15.6160542 Z M13.578348,15.6160542 L13.578348,3.14423077 L15.2821612,3.14423077 L17.9595819,10.6588547 L17.9943536,10.6588547 L17.9943536,3.14423077 L19.7677102,3.14423077 L19.7677102,15.6160542 L18.0986687,15.6160542 L15.3864763,8.11894686 L15.3517046,8.11894686 L15.3517046,15.6160542 L13.578348,15.6160542 Z M24.9486931,11.2544193 L24.0794007,6.73513499 L24.044629,6.73513499 L23.1753366,11.2544193 L24.9486931,11.2544193 Z M20.5674592,15.6160542 L23.3318092,3.14423077 L24.8096063,3.14423077 L27.5739563,15.6160542 L25.8005997,15.6160542 L25.2790243,12.9360135 L22.8623913,12.9360135 L22.3408158,15.6160542 L20.5674592,15.6160542 Z M28.4432488,15.6160542 L28.4432488,3.14423077 L31.1032836,3.14423077 C31.5900898,3.14423077 32.0189365,3.20845768 32.3898365,3.33691343 C32.7607364,3.46536919 33.0968595,3.69308279 33.3982157,4.02006107 C33.6995719,4.34703935 33.9082,4.72948142 34.0241063,5.16739876 C34.1400125,5.6053161 34.1979647,6.19795534 34.1979647,6.94533426 C34.1979647,7.50586846 34.166091,7.97881209 34.1023426,8.36417934 C34.0385941,8.7495466 33.9024064,9.11155284 33.6937751,9.45020891 C33.450372,9.85893176 33.1258394,10.1771469 32.7201676,10.4048639 C32.3144957,10.632581 31.781335,10.7464378 31.1206695,10.7464378 L30.2166053,10.7464378 L30.2166053,15.6160542 L28.4432488,15.6160542 Z M30.2166053,4.82582494 L30.2166053,9.06484358 L31.0685119,9.06484358 C31.4278213,9.06484358 31.7059921,9.01229429 31.9030327,8.90719413 C32.1000733,8.80209397 32.2449539,8.65612371 32.3376789,8.46927898 C32.4304039,8.29411204 32.4854585,8.07807606 32.5028445,7.82116456 C32.5202304,7.56425305 32.5289232,7.27815135 32.5289232,6.96285087 C32.5289232,6.67090598 32.523128,6.39356249 32.5115374,6.13081208 C32.4999468,5.86806168 32.4477897,5.63742868 32.3550648,5.43890615 C32.2623398,5.24038362 32.1232544,5.08857456 31.9378044,4.98347439 C31.7523544,4.87837423 31.4857741,4.82582494 31.1380553,4.82582494 L30.2166053,4.82582494 Z M38.4574977,11.2544193 L37.5882053,6.73513499 L37.5534336,6.73513499 L36.6841411,11.2544193 L38.4574977,11.2544193 Z M34.0762638,15.6160542 L36.8406138,3.14423077 L38.3184109,3.14423077 L41.0827609,15.6160542 L39.3094043,15.6160542 L38.7878288,12.9360135 L36.3711958,12.9360135 L35.8496204,15.6160542 L34.0762638,15.6160542 Z M41.9520533,15.6160542 L41.9520533,3.14423077 L43.7254099,3.14423077 L43.7254099,8.83712771 L43.7601816,8.83712771 L46.3506731,3.14423077 L48.1240297,3.14423077 L45.7073967,8.13646347 L48.5760618,15.6160542 L46.6983901,15.6160542 L44.6816316,10.0808067 L43.7254099,11.8850171 L43.7254099,15.6160542 L41.9520533,15.6160542 Z M55.0957551,3.14423077 L55.0957551,12.8133973 C55.0957551,13.2221201 55.0233148,13.5987234 54.878432,13.9432183 C54.7335492,14.2877133 54.5278187,14.5942509 54.2612343,14.8628402 C53.99465,15.1314295 53.6875031,15.3416266 53.3397844,15.493438 C52.9920656,15.6452493 52.6211712,15.7211538 52.22709,15.7211538 C51.8330088,15.7211538 51.465012,15.6452493 51.1230886,15.493438 C50.7811652,15.3416266 50.4769159,15.1314295 50.2103316,14.8628402 C49.9437472,14.5942509 49.7351191,14.2877133 49.584441,13.9432183 C49.4337629,13.5987234 49.358425,13.2221201 49.358425,12.8133973 L49.358425,3.14423077 L51.1317815,3.14423077 L51.1317815,12.6382312 C51.1317815,13.0819874 51.2360956,13.4089608 51.4447268,13.6191611 C51.6533581,13.8293615 51.9141432,13.93446 52.22709,13.93446 C52.5400369,13.93446 52.800822,13.8293615 53.0094532,13.6191611 C53.2180845,13.4089608 53.3223985,13.0819874 53.3223985,12.6382312 L53.3223985,3.14423077 L55.0957551,3.14423077 Z M56.6952532,15.6160542 L56.6952532,3.14423077 L58.3990664,3.14423077 L61.0764871,10.6588547 L61.1112588,10.6588547 L61.1112588,3.14423077 L62.8846154,3.14423077 L62.8846154,15.6160542 L61.2155739,15.6160542 L58.5033815,8.11894686 L58.4686098,8.11894686 L58.4686098,15.6160542 L56.6952532,15.6160542 Z" id="YANAPAKUN" fill="#11502A"></path>
                    <path d="M67.0769231,15.6152875 L67.0769231,3.05247993 L69.7776518,3.05247993 C70.2719053,3.05247993 70.7073126,3.11717539 71.0838866,3.24656825 C71.4604607,3.37596111 71.8017259,3.60533592 72.1076923,3.93469956 C72.4136587,4.2640632 72.6254785,4.64929526 72.7431579,5.09040728 C72.8608373,5.5315193 72.9196761,6.12848195 72.9196761,6.88131313 C72.9196761,7.44593652 72.8873148,7.92233036 72.8225911,8.31050894 C72.7578674,8.69868751 72.6195962,9.06333465 72.4077733,9.40446128 C72.1606465,9.81616583 71.8311492,10.1367024 71.4192713,10.3660807 C71.0073934,10.5954589 70.4660762,10.7101463 69.7953036,10.7101463 L68.8774089,10.7101463 L68.8774089,15.6152875 L67.0769231,15.6152875 Z M68.8774089,4.74634162 L68.8774089,9.01628464 L69.7423482,9.01628464 C70.1071543,9.01628464 70.3895806,8.96335199 70.5896356,8.85748511 C70.7896906,8.75161822 70.9367877,8.60458309 71.0309312,8.41637529 C71.1250747,8.23993048 71.1809716,8.02231848 71.1986235,7.76353276 C71.2162754,7.50474704 71.2251012,7.21655818 71.2251012,6.89895752 C71.2251012,6.60488284 71.2192173,6.32551609 71.2074494,6.06084887 C71.1956815,5.79618166 71.1427265,5.56386615 71.048583,5.36389536 C70.9544395,5.16392458 70.8132263,5.01100804 70.6249393,4.90514116 C70.4366522,4.79927427 70.1659937,4.74634162 69.8129555,4.74634162 L68.8774089,4.74634162 Z M74.1553036,6.01673789 C74.1553036,5.51092944 74.2435619,5.06394263 74.420081,4.67576405 C74.5966001,4.28758547 74.8319553,3.96410817 75.1261538,3.70532246 C75.4085844,3.45829972 75.729256,3.27009475 76.0881781,3.14070189 C76.4471003,3.01130903 76.808959,2.94661357 77.1737652,2.94661357 C77.5385713,2.94661357 77.9004301,3.01130903 78.2593522,3.14070189 C78.6182744,3.27009475 78.9448298,3.45829972 79.2390283,3.70532246 C79.5214589,3.96410817 79.7509303,4.28758547 79.9274494,4.67576405 C80.1039685,5.06394263 80.1922267,5.51092944 80.1922267,6.01673789 L80.1922267,12.6510295 C80.1922267,13.180364 80.1039685,13.6332322 79.9274494,14.0096478 C79.7509303,14.3860634 79.5214589,14.6977778 79.2390283,14.9448006 C78.9448298,15.2035863 78.6182744,15.3976727 78.2593522,15.5270655 C77.9004301,15.6564584 77.5385713,15.7211538 77.1737652,15.7211538 C76.808959,15.7211538 76.4471003,15.6564584 76.0881781,15.5270655 C75.729256,15.3976727 75.4085844,15.2035863 75.1261538,14.9448006 C74.8319553,14.6977778 74.5966001,14.3860634 74.420081,14.0096478 C74.2435619,13.6332322 74.1553036,13.180364 74.1553036,12.6510295 L74.1553036,6.01673789 Z M75.9557895,12.6510295 C75.9557895,13.0862601 76.0764091,13.4067966 76.3176518,13.6126489 C76.5588946,13.8185012 76.8442629,13.9214258 77.1737652,13.9214258 C77.5032675,13.9214258 77.7886358,13.8185012 78.0298785,13.6126489 C78.2711213,13.4067966 78.3917409,13.0862601 78.3917409,12.6510295 L78.3917409,6.01673789 C78.3917409,5.58150736 78.2711213,5.26097077 78.0298785,5.05511849 C77.7886358,4.84926622 77.5032675,4.74634162 77.1737652,4.74634162 C76.8442629,4.74634162 76.5588946,4.84926622 76.3176518,5.05511849 C76.0764091,5.26097077 75.9557895,5.58150736 75.9557895,6.01673789 L75.9557895,12.6510295 Z M81.7808907,15.6152875 L81.7808907,3.05247993 L83.5813765,3.05247993 L83.5813765,13.8155594 L87.1470445,13.8155594 L87.1470445,15.6152875 L81.7808907,15.6152875 Z M88.3650202,15.6152875 L88.3650202,3.05247993 L90.1655061,3.05247993 L90.1655061,15.6152875 L88.3650202,15.6152875 Z M97.6322267,12.0334758 L97.6322267,12.8098291 C97.6322267,13.1980076 97.5586782,13.5655955 97.4115789,13.9126036 C97.2644797,14.2596117 97.0614858,14.5683855 96.8025911,14.8389342 C96.5436964,15.1094829 96.2406765,15.3241542 95.8935223,15.4829545 C95.546368,15.6417549 95.1727415,15.7211538 94.7726316,15.7211538 C94.4313613,15.7211538 94.0842123,15.6741026 93.7311741,15.5799987 C93.3781359,15.4858948 93.0604063,15.3212155 92.7779757,15.0859557 C92.4955451,14.850696 92.2631318,14.5478036 92.0807287,14.1772695 C91.8983257,13.8067354 91.8071255,13.3332823 91.8071255,12.7568959 L91.8071255,5.84029397 C91.8071255,5.42858941 91.8777321,5.04629806 92.0189474,4.69340844 C92.1601626,4.34051883 92.3602146,4.03468575 92.6191093,3.77590003 C92.878004,3.51711431 93.1869078,3.31420582 93.54583,3.16716848 C93.9047521,3.02013114 94.3019142,2.94661357 94.7373279,2.94661357 C95.5846196,2.94661357 96.2730338,3.22303963 96.8025911,3.77590003 C97.0614858,4.04644873 97.2644797,4.36698533 97.4115789,4.73751943 C97.5586782,5.10805352 97.6322267,5.51092979 97.6322267,5.94616032 L97.6322267,6.65193603 L95.8317409,6.65193603 L95.8317409,6.05202668 C95.8317409,5.69913706 95.7317149,5.39330398 95.5316599,5.13451826 C95.3316049,4.87573254 95.0609464,4.74634162 94.7196761,4.74634162 C94.2724944,4.74634162 93.9753584,4.88455465 93.8282591,5.16098485 C93.6811599,5.43741505 93.6076113,5.78735867 93.6076113,6.21082621 L93.6076113,12.6333851 C93.6076113,12.9980377 93.6870437,13.3038708 93.8459109,13.5508936 C94.0047781,13.7979163 94.2901464,13.9214258 94.7020243,13.9214258 C94.8197037,13.9214258 94.9462072,13.9008409 95.0815385,13.8596704 C95.2168698,13.8185 95.3433732,13.7508638 95.4610526,13.6567599 C95.5669641,13.562656 95.6552223,13.4332651 95.72583,13.2685833 C95.7964376,13.1039014 95.8317409,12.8980523 95.8317409,12.6510295 L95.8317409,12.0334758 L97.6322267,12.0334758 Z M99.1502834,15.6152875 L99.1502834,3.05247993 L100.950769,3.05247993 L100.950769,15.6152875 L99.1502834,15.6152875 Z M98.9031579,2.48785936 L100.491822,0 L102.398219,0 L100.068178,2.48785936 L98.9031579,2.48785936 Z M106.334575,11.2218337 L105.451984,6.66958042 L105.41668,6.66958042 L104.534089,11.2218337 L106.334575,11.2218337 Z M101.886316,15.6152875 L104.692955,3.05247993 L106.19336,3.05247993 L109,15.6152875 L107.199514,15.6152875 L106.66996,12.9156954 L104.216356,12.9156954 L103.686802,15.6152875 L101.886316,15.6152875 Z" id="POLICÍA" fill="#3A413D"></path>
                </g>
            </g>
        </g>
    </g>
</svg>