<?xml version="1.0" encoding="UTF-8"?>
<svg width="278px" height="308px" viewBox="0 0 278 308" version="1.1" xmlns="http://www.w3.org/2000/svg" xmlns:xlink="http://www.w3.org/1999/xlink">
    <!-- Generator: Sketch 52.1 (67048) - http://www.bohemiancoding.com/sketch -->
    <title>Group 4</title>
    <desc>Created with Sketch.</desc>
    <g id="Page-1" stroke="none" stroke-width="1" fill="none" fill-rule="evenodd">
        <g id="iPhone-XS-Max-Copy-2" transform="translate(-92.000000, -134.000000)">
            <g id="Group-4" transform="translate(92.000000, 134.000000)">
                <g id="Group-2">
                    <circle id="Oval" fill="#910035" cx="114" cy="114" r="114"></circle>
                    <g id="logo-copy-5" transform="translate(60.000000, 54.000000)">
                        <g id="logo-copy-3">
                            <path d="M14.8963148,55.3944349 C27.3808608,58.1058969 40.1318965,59.4616279 53.149422,59.4616279 C66.2632099,59.4616279 79.5998543,58.0857719 93.1593548,55.3340599 L93.1593548,55.3340601 C100.27151,53.890747 107.239544,58.3306329 108.722894,65.2508227 C108.915733,66.1504646 109.008436,67.0676981 108.999398,67.9866567 L108.756862,92.6465214 C108.720389,96.3549712 107.211976,99.906141 104.547001,102.557553 C93.4533095,113.594786 76.7219735,119.113402 54.3529931,119.113402 C32.0343752,119.113402 15.3280444,113.619607 4.23400112,102.632018 C1.52044624,99.9445009 2.07707398e-15,96.3276606 0,92.5601681 L5.33164818e-08,67.0101007 C5.33164779e-08,60.4370777 5.47629978,55.1085898 12.2316578,55.1085898 C13.1279576,55.1085898 14.021542,55.204447 14.8963148,55.3944349 Z" id="Rectangle" fill="#523E3E"></path>
                            <path d="M10.2587651,53.9381443 L98.741235,53.9381443 C104.406994,53.9381443 109,58.5304632 109,64.1953757 L109,66.9768412 C109,72.6469643 106.913274,78.1188447 103.137563,82.3495139 C91.9612581,94.8725185 75.6337584,101.134021 54.1550634,101.134021 C32.6544266,101.134021 16.4777427,94.8597188 5.62501224,82.3111152 C1.99671695,78.1158539 6.79320408e-16,72.7549269 0,67.2086843 L0,64.1953757 C-6.93855428e-16,58.5304632 4.5930056,53.9381443 10.2587651,53.9381443 Z" id="Rectangle" fill="#816161"></path>
                            <path d="M42.3503502,1.00859395e-14 L66.1074865,0 C76.0040047,-1.07678547e-14 84.7652448,6.49439715 87.777819,16.0634502 L100.053874,55.0567557 C102.561874,63.0230948 100.630781,71.7433333 95.0054776,77.8538062 C85.545244,88.1299629 72.0139629,93.2680412 54.4116341,93.2680412 C36.6839535,93.2680412 23.1451464,88.0565224 13.7952127,77.6334852 C8.38915104,71.6069629 6.51311163,63.1339714 8.85888077,55.3389115 L20.5928265,16.3466642 C23.5155591,6.63433777 32.3459088,3.38574573e-14 42.3503502,1.00859395e-14 Z" id="Rectangle-Copy" fill="#FF4C03"></path>
                            <path d="M58.4329897,93.1122941 C57.2461237,93.2154024 56.0447189,93.2680412 54.8309561,93.2680412 C53.7743672,93.2680412 52.7271428,93.2281524 51.6907216,93.1498059 L51.6907216,66.9062414 C43.9969837,65.3528838 38.2061856,58.5873025 38.2061856,50.4764724 C38.2061856,41.2173456 45.7527261,33.7113402 55.0618557,33.7113402 C64.3709853,33.7113402 71.9175258,41.2173456 71.9175258,50.4764724 C71.9175258,58.5873025 66.1267276,65.3528838 58.4329897,66.9062414 L58.4329897,93.1122941 Z M55.0618557,60.5355519 C60.6473334,60.5355519 65.1752577,56.0319486 65.1752577,50.4764724 C65.1752577,44.9209962 60.6473334,40.4173932 55.0618557,40.4173932 C49.4763779,40.4173932 44.9484536,44.9209962 44.9484536,50.4764724 C44.9484536,56.0319486 49.4763779,60.5355519 55.0618557,60.5355519 Z" id="Combined-Shape" fill="#FFE2D7" fill-rule="nonzero"></path>
                        </g>
                    </g>
                </g>
                <g id="tap" transform="translate(160.128830, 190.326373) rotate(-28.000000) translate(-160.128830, -190.326373) translate(75.628830, 62.326373)">
                    <path d="M103.371269,92.3376798 C123.862914,82.6531421 134.880566,60.1045793 129.897207,38.0532978 C124.916967,16.0020155 105.267315,0.337679781 82.586484,0.337679781 C59.9087711,0.337679781 40.2591186,16.0020155 35.2757602,38.0532978 C30.2955201,60.1045793 41.3131711,82.6531421 61.8048175,92.3376798 L103.371269,92.3376798 Z" id="Path" fill-opacity="0.309725996" fill="#000000"></path>
                    <path d="M168.797798,129.807716 L168.797798,194.592456 C168.797798,194.592456 168.797798,216.650991 154.76754,229.42114 C153.17837,230.93543 152.296733,233.04291 152.339333,235.231447 L152.339333,247.795269 C152.326368,252.310508 148.649792,255.96728 144.110101,255.982017 L78.2743913,255.982017 C73.7347004,255.96728 70.0581244,252.310508 70.0451595,247.795269 L70.0451595,246.280978 C70.0525677,239.720895 67.396543,233.433457 62.6790425,228.848215 C54.7368981,221.153334 42.4754718,207.852631 37.1263783,194.592456 C28.8971465,174.129269 12.4386819,145.481176 4.20944965,137.29627 C-4.01978263,129.111363 4.20944965,120.926457 12.4386819,120.926457 C20.6679142,120.926457 37.1263783,137.29627 45.3556106,149.57455 C47.9745917,153.526075 51.0399484,157.164425 54.4905584,160.419597 C56.5390683,162.313382 59.415503,163.039209 62.1233887,162.342857 C64.8312749,161.646504 66.9946202,159.625608 67.8632922,156.982047 C69.4302355,151.936254 70.1674031,146.669397 70.0451595,141.389644 L70.0451595,47.260457 C70.0192287,42.0580767 73.3290731,37.415726 78.2743913,35.7190575 C79.5875867,35.2235051 80.9822775,34.9748076 82.3880816,34.9821764 C89.2059531,34.9821764 94.7328559,40.4793091 94.7328559,47.260457 L94.7328559,96.3717376 C94.7069251,91.1675152 98.0167695,86.5270066 102.962088,84.8303381 C104.277135,84.3347852 105.671826,84.0842457 107.07763,84.093457 C113.89365,84.093457 119.420552,89.5905897 119.420552,96.3717376 L119.420552,108.648176 C119.420552,105.393004 120.724486,102.27047 123.041563,99.9732439 C124.330679,98.6708065 125.908736,97.6889126 127.649785,97.1086186 C128.964832,96.6130662 130.359522,96.3625267 131.765326,96.3717376 C138.583198,96.3717376 144.110101,101.86887 144.110101,108.648176 L144.110101,129.111363 C144.110101,125.856191 145.412183,122.733658 147.731111,120.436431 C149.018376,119.133994 150.598285,118.1521 152.339333,117.569964 C153.94332,116.984143 155.654734,116.746499 157.358739,116.875453 C163.969166,117.577332 168.940415,123.19605 168.797798,129.807716 Z" id="Path" fill="#E7BC9D"></path>
                    <g id="Group" transform="translate(63.859623, 34.476526)" fill="#D79A81">
                        <path d="M18.5238951,0.259363511 C17.1210176,0.251953125 15.7292304,0.502053772 14.4187689,1.00040211 C9.48374631,2.70664338 6.18079268,7.37518658 6.20666944,12.6069191 L6.20666944,107.26719 C6.32865854,112.576732 5.59302568,117.873305 4.02934451,122.947567 C3.38243164,124.853889 2.07012195,126.461943 0.334546376,127.475313 C2.46935976,128.731374 5.05516399,128.94998 7.3692646,128.069996 C9.68521341,127.190013 11.4762384,125.305923 12.2414445,122.947567 C13.8051256,117.873305 14.5407585,112.576732 14.4187689,107.26719 L14.4187689,12.6069191 C14.3928926,7.37518658 17.6958463,2.70664338 22.6308689,1.00040211 C21.3185597,0.502053772 19.926772,0.251953125 18.5238951,0.259363511 Z" id="Path"></path>
                        <path d="M39.0550684,50.3887725 C34.1200457,52.0950138 30.8170921,56.7617045 30.8429689,61.9952895 L30.8429689,99.0361039 C30.8429689,101.30924 32.6820501,103.150721 34.9499427,103.150721 C37.2159872,103.150721 39.0550684,101.30924 39.0550684,99.0361039 L39.0550684,61.9952895 C39.0310403,56.7617045 42.3321457,52.0950138 47.2671683,50.3887725 C44.6185213,49.4013382 41.7037158,49.4013382 39.0550684,50.3887725 Z" id="Path"></path>
                        <path d="M63.6913683,62.7363281 C61.9539445,63.3198961 60.3791731,64.30733 59.0927402,65.6171158 C56.7804878,67.9273033 55.4792683,71.0674545 55.4792683,74.3409926 L55.4792683,99.0361039 C55.4792683,101.30924 57.31835,103.150721 59.5862426,103.150721 C61.8541348,103.150721 63.6913683,101.30924 63.6913683,99.0361039 L63.6913683,74.3409926 C63.6673402,69.1092601 66.9702933,64.4425694 71.9053164,62.7363281 C69.2566694,61.7488943 66.3418634,61.7488943 63.6913683,62.7363281 Z" id="Path"></path>
                        <path d="M92.4346415,82.5739315 C91.0336128,82.5646687 89.6399769,82.8147693 88.3295159,83.3131177 C86.5920921,83.8985381 85.0154726,84.885972 83.7308878,86.1957578 C81.4167872,88.5059458 80.1174159,91.6460965 80.1174159,94.9196347 L80.1174159,103.150721 C80.1174159,105.423857 81.9546494,107.26719 84.222542,107.26719 C86.4904342,107.26719 88.3295159,105.423857 88.3295159,103.150721 L88.3295159,94.9196347 C88.3036396,89.6879021 91.6065928,85.0212114 96.5416159,83.3131177 C95.2293062,82.8147693 93.8375189,82.5646687 92.4346415,82.5739315 Z" id="Path"></path>
                    </g>
                </g>
            </g>
        </g>
    </g>
</svg>