<?xml version="1.0" encoding="UTF-8"?>
<svg width="160px" height="64px" viewBox="0 0 160 64" version="1.1" xmlns="http://www.w3.org/2000/svg" xmlns:xlink="http://www.w3.org/1999/xlink">
    <!-- Generator: Sketch 52.1 (67048) - http://www.bohemiancoding.com/sketch -->
    <title>Group 3</title>
    <desc>Created with Sketch.</desc>
    <defs>
        <path d="M5,-4.61852778e-14 L135.23247,-4.61852778e-14 C137.993893,-3.19767212e-14 140.23247,2.23857625 140.23247,5 L140.229559,31.9843876 C140.229559,34.744675 137.992756,36.9827802 135.232469,36.9843868 L78.1772241,37.0205052 L69.2287209,44.7255859 L60.2802177,36.9843876 L5,36.9843876 C2.23857625,36.9843876 -4.68209359e-14,34.7458114 -5.32907052e-14,31.9843876 L-4.26325641e-14,5 C-4.2970741e-14,2.23857625 2.23857625,-4.56780125e-14 5,-4.61852778e-14 Z" id="path-1"></path>
        <filter x="-11.4%" y="-31.3%" width="122.8%" height="171.5%" filterUnits="objectBoundingBox" id="filter-2">
            <feOffset dx="0" dy="2" in="SourceAlpha" result="shadowOffsetOuter1"></feOffset>
            <feGaussianBlur stdDeviation="5" in="shadowOffsetOuter1" result="shadowBlurOuter1"></feGaussianBlur>
            <feColorMatrix values="0 0 0 0 0   0 0 0 0 0   0 0 0 0 0  0 0 0 0.394333107 0" type="matrix" in="shadowBlurOuter1"></feColorMatrix>
        </filter>
    </defs>
    <g id="Page-1" stroke="none" stroke-width="1" fill="none" fill-rule="evenodd">
        <g id="iPhone-XS-Max-Copy-17" transform="translate(-156.000000, -237.000000)">
            <g id="Group-3" transform="translate(166.000000, 245.000000)">
                <g id="Group-2">
                    <g id="Rectangle">
                        <use fill="black" fill-opacity="1" filter="url(#filter-2)" xlink:href="#path-1"></use>
                        <use fill="#E30027" fill-rule="evenodd" xlink:href="#path-1"></use>
                    </g>
                    <path d="M5,8.8817842e-14 L39.2718335,8.8817842e-14 L39.2718335,36.9843876 L5,36.9843876 C2.23857625,36.9843876 8.91560188e-14,34.7458114 8.8817842e-14,31.9843876 L8.8817842e-14,5 C8.84796651e-14,2.23857625 2.23857625,8.93251073e-14 5,8.8817842e-14 Z" id="Rectangle" fill="#FFFCF7"></path>
                </g>
                <g id="alarma" transform="translate(7.000000, 5.000000)">
                    <g id="Group-10" transform="translate(3.162651, 7.680723)">
                        <g id="Group-8">
                            <g id="Group-7" transform="translate(1.448293, 0.000000)">
                                <path d="M4.75257044,0 L11.025542,5.35047229e-16 C12.5132113,2.61766807e-16 13.7780583,1.08610731 14.002969,2.556677 L15.5697791,12.8012048 L0.208333333,12.8012048 L1.77514347,2.556677 C2.00005413,1.08610731 3.2649011,8.08327666e-16 4.75257044,0 Z" id="Rectangle" fill="#E30027" transform="translate(7.889056, 6.400602) scale(-1, 1) translate(-7.889056, -6.400602) "></path>
                                <path d="M12.9948919,0.73671922 C13.4398685,1.12121697 13.7727827,1.63556509 13.9327995,2.2275252 L15.5697791,12.8049318 L0.158953686,12.5467348 C6.51271345,10.9213008 10.7913595,6.98462891 12.9948919,0.73671922 Z" id="Combined-Shape" fill="#CC012C"></path>
                            </g>
                            <path d="M1.80722892,12.8012048 L16.8674699,12.8012048 C17.8655748,12.8012048 18.6746988,13.6103288 18.6746988,14.6084337 L18.6746988,16.8674699 L0,16.8674699 L0,14.6084337 C-1.22232606e-16,13.6103288 0.809123946,12.8012048 1.80722892,12.8012048 Z" id="Rectangle" fill="#3A413D"></path>
                            <path d="M1.80722892,12.3493976 L16.8674699,12.3493976 C17.2001715,12.3493976 17.4698795,12.6191056 17.4698795,12.9518072 L1.20481928,12.9518072 C1.20481928,12.6191056 1.47452726,12.3493976 1.80722892,12.3493976 Z" id="Rectangle-Copy-15" fill="#5E6662"></path>
                        </g>
                        <path d="M4.92232086,3.76506024 C4.69917565,3.76506024 4.51807229,3.58395688 4.51807229,3.36081167 C4.51807229,2.17178187 5.48503488,1.20481928 6.67406468,1.20481928 C6.89720989,1.20481928 7.07831325,1.38592264 7.07831325,1.60906785 C7.07831325,1.83221306 6.89720989,2.01331643 6.67406468,2.01331643 C5.93078631,2.01331643 5.32656944,2.61807229 5.32656944,3.36081167 C5.32656944,3.58395688 5.14546607,3.76506024 4.92232086,3.76506024 Z" id="Path" fill="#FF2755"></path>
                    </g>
                    <g id="Group-9" fill="#CC012C">
                        <path d="M12.4246988,3.1626506 C12.1337349,3.1626506 11.8975904,2.95012048 11.8975904,2.68825301 L11.8975904,0.47439759 C11.8975904,0.21253012 12.1337349,0 12.4246988,0 C12.7156627,0 12.9518072,0.21253012 12.9518072,0.47439759 L12.9518072,2.68825301 C12.9518072,2.95012048 12.7156627,3.1626506 12.4246988,3.1626506 Z" id="Path"></path>
                        <path d="M23.4186747,12.0481928 C23.1277108,12.0481928 22.8915663,11.8356627 22.8915663,11.5737952 L22.8915663,9.35993976 C22.8915663,9.09807229 23.1277108,8.88554217 23.4186747,8.88554217 C23.7096386,8.88554217 23.9457831,9.09807229 23.9457831,9.35993976 L23.9457831,11.5737952 C23.9457831,11.8356627 23.7096386,12.0481928 23.4186747,12.0481928 Z" id="Path" transform="translate(23.418675, 10.466867) rotate(90.000000) translate(-23.418675, -10.466867) "></path>
                        <path d="M1.5813253,12.0481928 C1.29036145,12.0481928 1.05421687,11.8356627 1.05421687,11.5737952 L1.05421687,9.35993976 C1.05421687,9.09807229 1.29036145,8.88554217 1.5813253,8.88554217 C1.87228916,8.88554217 2.10843373,9.09807229 2.10843373,9.35993976 L2.10843373,11.5737952 C2.10843373,11.8356627 1.87228916,12.0481928 1.5813253,12.0481928 Z" id="Path-Copy" transform="translate(1.581325, 10.466867) rotate(90.000000) translate(-1.581325, -10.466867) "></path>
                        <path d="M19.3081438,5.12048193 C19.1844949,5.12048193 19.0608459,5.07347253 18.9668212,4.97880979 C18.7781279,4.79012825 18.7781279,4.48424523 18.9668212,4.29556369 L20.5607331,2.70175211 C20.7494265,2.51307059 21.0553288,2.51307059 21.2440221,2.70175211 C21.4327155,2.89043364 21.4327155,3.19631667 21.2440221,3.38499821 L19.6494663,4.97880979 C19.5554416,5.07347253 19.4317928,5.12048193 19.3081438,5.12048193 Z" id="Path"></path>
                        <path d="M5.54113232,5.12048193 C5.4174523,5.12048193 5.29377227,5.07347253 5.19972392,4.97880979 L3.60541108,3.38499821 C3.4166702,3.19631667 3.4166702,2.89043364 3.60541108,2.70175211 C3.79415196,2.51307059 4.10013119,2.51307059 4.28887206,2.70175211 L5.88254072,4.29620765 C6.07128161,4.48488919 6.07128161,4.79077221 5.88254072,4.97945375 C5.78849238,5.07347253 5.66481235,5.12048193 5.54113232,5.12048193 Z" id="Path"></path>
                    </g>
                </g>
            </g>
        </g>
    </g>
</svg>